<mxfile host="65bd71144e">
    <diagram id="Re8NwOJtfycG1q4S5qzh" name="Page-1">
        <mxGraphModel dx="3278" dy="1861" grid="1" gridSize="10" guides="1" tooltips="1" connect="1" arrows="1" fold="1" page="1" pageScale="1" pageWidth="827" pageHeight="1169" math="0" shadow="0">
            <root>
                <mxCell id="0"/>
                <mxCell id="1" parent="0"/>
                <mxCell id="15" value="BedManager" style="shape=umlFrame;whiteSpace=wrap;html=1;width=120;height=30;boundedLbl=1;verticalAlign=middle;align=left;spacingLeft=5;" parent="1" vertex="1">
                    <mxGeometry x="-886.48" y="-594" width="280" height="1090" as="geometry"/>
                </mxCell>
                <mxCell id="16" value="Event" style="swimlane;fontStyle=1;align=center;verticalAlign=middle;childLayout=stackLayout;horizontal=1;startSize=29;horizontalStack=0;resizeParent=1;resizeParentMax=0;resizeLast=0;collapsible=0;marginBottom=0;html=1;" parent="1" vertex="1">
                    <mxGeometry x="-853.48" y="-544" width="220" height="1019" as="geometry"/>
                </mxCell>
                <mxCell id="96" value="&lt;u&gt;&lt;b&gt;&lt;br&gt;&lt;br&gt;Props :&amp;nbsp;&lt;/b&gt;&lt;br&gt;&lt;div&gt;&lt;b&gt;&lt;br&gt;&lt;/b&gt;&lt;/div&gt;&lt;/u&gt;id:&amp;nbsp; ; default : null&lt;br&gt;&lt;p class=&quot;MsoNormal&quot;&gt;patient:&amp;nbsp; ; default&amp;nbsp;: null&lt;/p&gt;&lt;p class=&quot;MsoNormal&quot;&gt;startDate:&amp;nbsp; ; default&amp;nbsp;: null&lt;/p&gt;&lt;p class=&quot;MsoNormal&quot;&gt;endDate:&amp;nbsp; ; default&amp;nbsp;: null&lt;/p&gt;&lt;span&gt;confirmedEndDate:&amp;nbsp; ; default&amp;nbsp;: null&lt;/span&gt;&lt;br&gt;&lt;br&gt;&lt;span&gt;optimalEndDate:&amp;nbsp; ; default&amp;nbsp;: null&lt;/span&gt;&lt;br&gt;&lt;br&gt;&lt;span&gt;duration:&amp;nbsp; ; default&amp;nbsp;: null&lt;/span&gt;&lt;br&gt;&lt;br&gt;&lt;span&gt;motive:&amp;nbsp; ; default&amp;nbsp;: null&lt;/span&gt;&lt;br&gt;&lt;br&gt;&lt;span&gt;comment:&amp;nbsp; ; default&amp;nbsp;: null&lt;/span&gt;&lt;br&gt;&lt;br&gt;&lt;span&gt;pole:&amp;nbsp; ; default&amp;nbsp;: null&lt;/span&gt;&lt;br&gt;&lt;br&gt;&lt;span&gt;service:&amp;nbsp; ; default&amp;nbsp;: null&lt;/span&gt;&lt;br&gt;&lt;br&gt;&lt;span&gt;uf:&amp;nbsp; ; default&amp;nbsp;: null&lt;/span&gt;&lt;br&gt;&lt;br&gt;&lt;span&gt;resourceId:&amp;nbsp; ; default&amp;nbsp;: null&lt;/span&gt;&lt;br&gt;&lt;br&gt;&lt;span&gt;confirmed:&amp;nbsp; ; default&amp;nbsp;: null&lt;/span&gt;&lt;br&gt;&lt;br&gt;&lt;span&gt;resource1:&amp;nbsp; ; default&amp;nbsp;: null&lt;/span&gt;&lt;br&gt;&lt;br&gt;&lt;span&gt;typeDoc1:&amp;nbsp; ; default&amp;nbsp;: null&lt;/span&gt;&lt;br&gt;&lt;br&gt;&lt;span&gt;resource2:&amp;nbsp; ; default&amp;nbsp;: null&lt;/span&gt;&lt;br&gt;&lt;br&gt;&lt;span&gt;typeDoc2:&amp;nbsp; ; default&amp;nbsp;: null&lt;/span&gt;&lt;br&gt;&lt;br&gt;&lt;span&gt;resource3:&amp;nbsp; ; default&amp;nbsp;: null&lt;/span&gt;&lt;br&gt;&lt;br&gt;&lt;span&gt;typeDoc3:&amp;nbsp; ; default&amp;nbsp;: null&lt;/span&gt;&lt;br&gt;&lt;br&gt;&lt;span&gt;resource4:&amp;nbsp; ; default&amp;nbsp;: null&lt;/span&gt;&lt;br&gt;&lt;br&gt;&lt;span&gt;typeDoc4:&amp;nbsp; ; default&amp;nbsp;: null&lt;/span&gt;&lt;br&gt;&lt;br&gt;&lt;span&gt;type:&amp;nbsp; ; default&amp;nbsp;: null&lt;/span&gt;&lt;br&gt;&lt;br&gt;&lt;span&gt;autoGenerated:&amp;nbsp; ; default&amp;nbsp;: null&lt;/span&gt;&lt;br&gt;&lt;br&gt;&lt;span&gt;status:&amp;nbsp; ; default&amp;nbsp;: null&lt;/span&gt;&lt;br&gt;&lt;br&gt;&lt;span&gt;color:&amp;nbsp; ; default&amp;nbsp;: null&lt;/span&gt;&lt;br&gt;&lt;br&gt;&lt;span&gt;visible:&amp;nbsp; ; default&amp;nbsp;: null&lt;/span&gt;&lt;br&gt;&lt;br&gt;&lt;span&gt;active:&amp;nbsp; ; default&amp;nbsp;: null&lt;/span&gt;&lt;br&gt;&lt;br&gt;&lt;span&gt;selected:&amp;nbsp; ; default&amp;nbsp;: null&lt;/span&gt;&lt;br&gt;&lt;br&gt;&lt;span&gt;draggable:&amp;nbsp; ; default&amp;nbsp;: null&lt;/span&gt;&lt;br&gt;&lt;br&gt;&lt;span&gt;resizable:&amp;nbsp; ; default&amp;nbsp;: null&lt;/span&gt;&lt;br&gt;&lt;br&gt;&lt;span&gt;cssClasses:&amp;nbsp; ; default&amp;nbsp;: null&lt;/span&gt;&lt;br&gt;&lt;br&gt;&lt;span&gt;dayWidthInPixels:&amp;nbsp; ; default&amp;nbsp;: null&lt;br&gt;&lt;br&gt;&lt;br&gt;&lt;/span&gt;" style="text;html=1;align=center;verticalAlign=middle;resizable=0;points=[];autosize=1;strokeColor=none;fillColor=none;" parent="16" vertex="1">
                    <mxGeometry y="29" width="220" height="990" as="geometry"/>
                </mxCell>
                <mxCell id="18" value="Components" style="shape=umlFrame;whiteSpace=wrap;html=1;width=120;height=30;boundedLbl=1;verticalAlign=middle;align=left;spacingLeft=5;" parent="1" vertex="1">
                    <mxGeometry x="-920" y="-1147" width="770" height="2187" as="geometry"/>
                </mxCell>
                <mxCell id="19" value="&lt;p class=&quot;MsoNormal&quot; style=&quot;text-align: justify&quot;&gt;AppTemplateDefault&lt;/p&gt;" style="swimlane;fontStyle=1;align=center;verticalAlign=middle;childLayout=stackLayout;horizontal=1;startSize=29;horizontalStack=0;resizeParent=1;resizeParentMax=0;resizeLast=0;collapsible=0;marginBottom=0;html=1;" parent="1" vertex="1">
                    <mxGeometry x="-750" y="782" width="140" height="54" as="geometry"/>
                </mxCell>
                <mxCell id="21" value="Modal" style="swimlane;fontStyle=1;align=center;verticalAlign=middle;childLayout=stackLayout;horizontal=1;startSize=29;horizontalStack=0;resizeParent=1;resizeParentMax=0;resizeLast=0;collapsible=0;marginBottom=0;html=1;" parent="1" vertex="1">
                    <mxGeometry x="-490" y="836" width="140" height="54" as="geometry"/>
                </mxCell>
                <mxCell id="23" value="&lt;p class=&quot;MsoNormal&quot; style=&quot;text-align: justify&quot;&gt;Crossplanning&lt;/p&gt;" style="swimlane;fontStyle=1;align=center;verticalAlign=middle;childLayout=stackLayout;horizontal=1;startSize=29;horizontalStack=0;resizeParent=1;resizeParentMax=0;resizeLast=0;collapsible=0;marginBottom=0;html=1;" parent="1" vertex="1">
                    <mxGeometry x="-558.5" y="253.5" width="380" height="399" as="geometry"/>
                </mxCell>
                <mxCell id="97" value="&lt;br&gt;&lt;br&gt;&lt;b&gt;&lt;u&gt;Props &lt;/u&gt;&lt;/b&gt;:&amp;nbsp;&lt;br&gt;&lt;p class=&quot;MsoNormal&quot;&gt;readonly availabilities!: Array&amp;lt;any&amp;gt;; default: () =&amp;gt; {return []}&lt;/p&gt;&lt;p class=&quot;MsoNormal&quot;&gt;readonly occupations!: Array&amp;lt;any&amp;gt;; default: () =&amp;gt; {return []}&lt;/p&gt;&lt;p class=&quot;MsoNormal&quot;&gt;readonly scheduling!: Array&amp;lt;any&amp;gt;; default: () =&amp;gt; {return []}&lt;/p&gt;&lt;p class=&quot;MsoNormal&quot;&gt;readonly resourcesTypes!: Array&amp;lt;any&amp;gt;; default: () =&amp;gt; {return []}&lt;/p&gt;&lt;p class=&quot;MsoNormal&quot;&gt;default: 0 readonly dayHourStart!: number; default: () =&amp;gt; {return []}&lt;/p&gt;&lt;p class=&quot;MsoNormal&quot;&gt;default: 23 readonly dayHourEnd!: number; default: () =&amp;gt; {return []}&lt;/p&gt;&lt;p class=&quot;MsoNormal&quot;&gt;readonly resources!: Array&amp;lt;any&amp;gt;; default: &lt;/p&gt;&lt;span&gt;readonly beginDate!: Date; default:&lt;/span&gt;&lt;br&gt;&lt;br&gt;&lt;span&gt;visibleDays!: number; default: 1&lt;/span&gt;&lt;br&gt;&lt;br&gt;&lt;span&gt;slotDuration!: number;&lt;/span&gt;&lt;br&gt;&lt;br&gt;&lt;span&gt;schedulingMode!: Array&amp;lt;any&amp;gt;; default: () =&amp;gt; {return&amp;nbsp;&lt;/span&gt;&lt;span&gt;false}&lt;br&gt;&lt;/span&gt;&lt;span&gt;&lt;br&gt;&lt;br&gt;&lt;/span&gt;" style="text;html=1;align=center;verticalAlign=middle;resizable=0;points=[];autosize=1;strokeColor=none;fillColor=none;" parent="23" vertex="1">
                    <mxGeometry y="29" width="380" height="370" as="geometry"/>
                </mxCell>
                <mxCell id="25" value="&lt;p class=&quot;MsoNormal&quot; style=&quot;text-align: justify&quot;&gt;Menu&lt;/p&gt;" style="swimlane;fontStyle=1;align=center;verticalAlign=middle;childLayout=stackLayout;horizontal=1;startSize=29;horizontalStack=0;resizeParent=1;resizeParentMax=0;resizeLast=0;collapsible=0;marginBottom=0;html=1;" parent="1" vertex="1">
                    <mxGeometry x="-460" y="680" width="140" height="109" as="geometry"/>
                </mxCell>
                <mxCell id="99" value="&lt;br&gt;&lt;b&gt;&lt;u&gt;Props :&lt;br&gt;&lt;/u&gt;&lt;/b&gt;&lt;br&gt;menu:&amp;nbsp; Array&lt;br&gt;&lt;br&gt;" style="text;html=1;align=center;verticalAlign=middle;resizable=0;points=[];autosize=1;strokeColor=none;fillColor=none;" parent="25" vertex="1">
                    <mxGeometry y="29" width="140" height="80" as="geometry"/>
                </mxCell>
                <mxCell id="27" value="&lt;p class=&quot;MsoNormal&quot; style=&quot;text-align: justify&quot;&gt;VerticalDailyOrganiser&lt;/p&gt;" style="swimlane;fontStyle=1;align=center;verticalAlign=middle;childLayout=stackLayout;horizontal=1;startSize=29;horizontalStack=0;resizeParent=1;resizeParentMax=0;resizeLast=0;collapsible=0;marginBottom=0;html=1;" parent="1" vertex="1">
                    <mxGeometry x="-517" y="-940" width="310" height="759" as="geometry"/>
                </mxCell>
                <mxCell id="102" value="&lt;b&gt;&lt;u&gt;&lt;br&gt;&lt;br&gt;Props&lt;/u&gt;&lt;/b&gt; :&amp;nbsp;&lt;br&gt;&lt;p class=&quot;MsoNormal&quot;&gt;settings: {type: Object, default:&amp;nbsp; () =&amp;gt; {return {&lt;span&gt;&amp;nbsp;&lt;/span&gt;&lt;/p&gt;&lt;p class=&quot;MsoNormal&quot;&gt;&lt;span&gt;slotDuration :&amp;nbsp; 20,&lt;/span&gt;&lt;span&gt;&amp;nbsp;&lt;/span&gt;&lt;/p&gt;&lt;p class=&quot;MsoNormal&quot;&gt;&lt;span&gt;firstSlotHour :&amp;nbsp; '07:00',&lt;/span&gt;&lt;/p&gt;&lt;span&gt;lastSlotHour :&amp;nbsp; '21:00',&lt;/span&gt;&lt;br&gt;&lt;p class=&quot;MsoNormal&quot;&gt;}}},&lt;/p&gt;&lt;p class=&quot;MsoNormal&quot;&gt;&amp;nbsp; &amp;nbsp; &amp;nbsp;&lt;br&gt;availabilities: {type: Array, default: () =&amp;gt; {return [&lt;/p&gt;&lt;p class=&quot;MsoNormal&quot;&gt;&amp;nbsp;{&lt;/p&gt;&lt;p class=&quot;MsoNormal&quot;&gt;&amp;nbsp; &amp;nbsp; &amp;nbsp; &amp;nbsp; &amp;nbsp; &amp;nbsp;&amp;nbsp;&lt;br&gt;start: '08:00',&lt;/p&gt;&lt;p class=&quot;MsoNormal&quot;&gt;&amp;nbsp; &amp;nbsp; &amp;nbsp; &amp;nbsp; &amp;nbsp;&amp;nbsp;&lt;br&gt;end: '12h00',&lt;/p&gt;&lt;p class=&quot;MsoNormal&quot;&gt;type: 'venues',&lt;/p&gt;&lt;p class=&quot;MsoNormal&quot;&gt;&amp;nbsp;},&lt;/p&gt;&lt;p class=&quot;MsoNormal&quot;&gt;&amp;nbsp;{&lt;span&gt;&amp;nbsp; &amp;nbsp; &amp;nbsp; &amp;nbsp; &amp;nbsp;&amp;nbsp;&lt;/span&gt;&lt;/p&gt;&lt;p class=&quot;MsoNormal&quot;&gt;start: '13:00',&lt;/p&gt;&lt;p class=&quot;MsoNormal&quot;&gt;&amp;nbsp; &amp;nbsp; &amp;nbsp; &amp;nbsp; &amp;nbsp;&lt;br&gt;end: '19h00',&lt;/p&gt;&lt;p class=&quot;MsoNormal&quot;&gt;&amp;nbsp; &amp;nbsp; &amp;nbsp; &amp;nbsp; &amp;nbsp;&amp;nbsp;&lt;br&gt;type: 'venues',&lt;/p&gt;&lt;p class=&quot;MsoNormal&quot;&gt;&amp;nbsp; &amp;nbsp; &amp;nbsp; &amp;nbsp; },&lt;/p&gt;&lt;p class=&quot;MsoNormal&quot;&gt;]}},&lt;/p&gt;&lt;p class=&quot;MsoNormal&quot;&gt;&amp;nbsp;events: {type: Array, default: () =&amp;gt; {return []}},&lt;/p&gt;&lt;p class=&quot;MsoNormal&quot;&gt;&amp;nbsp;commands: {type: Array, default: () =&amp;gt; {return []}},&lt;/p&gt;&lt;p class=&quot;MsoNormal&quot;&gt;&amp;nbsp;mode: {type: String, default:'day'},&lt;/p&gt;&lt;span&gt;date:&amp;nbsp;&lt;/span&gt;&lt;span&gt;{type: Date, default:() =&amp;gt; {return new Date()}},&lt;/span&gt;&lt;span&gt;&lt;br&gt;&lt;/span&gt;&lt;p class=&quot;MsoNormal&quot;&gt;&lt;br&gt;&lt;/p&gt;&lt;p class=&quot;MsoNormal&quot;&gt;&lt;br&gt;&lt;/p&gt;" style="text;html=1;align=center;verticalAlign=middle;resizable=0;points=[];autosize=1;strokeColor=none;fillColor=none;" parent="27" vertex="1">
                    <mxGeometry y="29" width="310" height="730" as="geometry"/>
                </mxCell>
                <mxCell id="116" style="edgeStyle=none;html=1;fontSize=30;entryX=0.781;entryY=1.011;entryDx=0;entryDy=0;entryPerimeter=0;" parent="1" source="31" target="109" edge="1">
                    <mxGeometry relative="1" as="geometry">
                        <mxPoint x="520" y="-120" as="targetPoint"/>
                        <Array as="points">
                            <mxPoint x="520" y="547"/>
                        </Array>
                    </mxGeometry>
                </mxCell>
                <mxCell id="31" value="Header" style="swimlane;fontStyle=1;align=center;verticalAlign=middle;childLayout=stackLayout;horizontal=1;startSize=29;horizontalStack=0;resizeParent=1;resizeParentMax=0;resizeLast=0;collapsible=0;marginBottom=0;html=1;" parent="1" vertex="1">
                    <mxGeometry x="312" y="520" width="140" height="54" as="geometry"/>
                </mxCell>
                <mxCell id="95" style="edgeStyle=none;html=1;entryX=1;entryY=0.5;entryDx=0;entryDy=0;" parent="1" source="33" target="21" edge="1">
                    <mxGeometry relative="1" as="geometry"/>
                </mxCell>
                <mxCell id="33" value="SideBar" style="swimlane;fontStyle=1;align=center;verticalAlign=middle;childLayout=stackLayout;horizontal=1;startSize=29;horizontalStack=0;resizeParent=1;resizeParentMax=0;resizeLast=0;collapsible=0;marginBottom=0;html=1;" parent="1" vertex="1">
                    <mxGeometry x="-10" y="840" width="140" height="54" as="geometry"/>
                </mxCell>
                <mxCell id="35" value="&lt;p class=&quot;MsoNormal&quot; style=&quot;text-align: justify&quot;&gt;Notifications&lt;/p&gt;" style="swimlane;fontStyle=1;align=center;verticalAlign=middle;childLayout=stackLayout;horizontal=1;startSize=29;horizontalStack=0;resizeParent=1;resizeParentMax=0;resizeLast=0;collapsible=0;marginBottom=0;html=1;" parent="1" vertex="1">
                    <mxGeometry x="-780" y="-1084" width="140" height="54" as="geometry"/>
                </mxCell>
                <mxCell id="37" value="&lt;p class=&quot;MsoNormal&quot; style=&quot;text-align: justify&quot;&gt;TreeView&lt;/p&gt;" style="swimlane;fontStyle=1;align=center;verticalAlign=middle;childLayout=stackLayout;horizontal=1;startSize=29;horizontalStack=0;resizeParent=1;resizeParentMax=0;resizeLast=0;collapsible=0;marginBottom=0;html=1;" parent="1" vertex="1">
                    <mxGeometry x="-487" y="920" width="140" height="109" as="geometry"/>
                </mxCell>
                <mxCell id="101" value="&lt;br&gt;&lt;b&gt;&lt;u&gt;Props &lt;/u&gt;&lt;/b&gt;:&lt;br&gt;&lt;br&gt;Tree : [Array, Object]&lt;br&gt;&lt;br&gt;" style="text;html=1;align=center;verticalAlign=middle;resizable=0;points=[];autosize=1;strokeColor=none;fillColor=none;" parent="37" vertex="1">
                    <mxGeometry y="29" width="140" height="80" as="geometry"/>
                </mxCell>
                <mxCell id="107" style="edgeStyle=none;html=1;exitX=0;exitY=0.5;exitDx=0;exitDy=0;entryX=1;entryY=0.5;entryDx=0;entryDy=0;" parent="1" source="39" target="35" edge="1">
                    <mxGeometry relative="1" as="geometry"/>
                </mxCell>
                <mxCell id="39" value="&lt;p class=&quot;MsoNormal&quot; style=&quot;text-align: justify&quot;&gt;Login&lt;/p&gt;" style="swimlane;fontStyle=1;align=center;verticalAlign=middle;childLayout=stackLayout;horizontal=1;startSize=29;horizontalStack=0;resizeParent=1;resizeParentMax=0;resizeLast=0;collapsible=0;marginBottom=0;html=1;" parent="1" vertex="1">
                    <mxGeometry x="-347" y="-1084" width="140" height="54" as="geometry"/>
                </mxCell>
                <mxCell id="41" value="&lt;p class=&quot;MsoNormal&quot; style=&quot;text-align: justify&quot;&gt;DropDownList&lt;/p&gt;" style="swimlane;fontStyle=1;align=center;verticalAlign=middle;childLayout=stackLayout;horizontal=1;startSize=29;horizontalStack=0;resizeParent=1;resizeParentMax=0;resizeLast=0;collapsible=0;marginBottom=0;html=1;" parent="1" vertex="1">
                    <mxGeometry x="-517" y="-109" width="303" height="229" as="geometry"/>
                </mxCell>
                <mxCell id="98" value="&lt;br&gt;&lt;b&gt;&lt;u&gt;Props :&amp;nbsp;&lt;br&gt;&lt;/u&gt;&lt;/b&gt;&lt;p class=&quot;MsoNormal&quot;&gt;value&amp;nbsp;:&amp;nbsp; ; default:&lt;br&gt;() =&amp;gt;&amp;nbsp; []&lt;/p&gt;&lt;p class=&quot;MsoNormal&quot;&gt;options&amp;nbsp;:&amp;nbsp; ; default:&lt;br&gt;() =&amp;gt;&amp;nbsp; [{ id: 0, label: 'No options&lt;br&gt;provided' }, { id: 1, label: 'example list to be happy' }]&lt;/p&gt;&lt;span&gt;valueKey&amp;nbsp;:&amp;nbsp; ;&amp;nbsp;&amp;nbsp; &amp;nbsp;default: 'id'&amp;nbsp;&amp;nbsp;&lt;/span&gt;&lt;br&gt;&lt;span&gt;&lt;br&gt;labelKey&amp;nbsp;:&amp;nbsp; ;&amp;nbsp; &amp;nbsp;default: 'label'&amp;nbsp;&amp;nbsp;&lt;br&gt;&lt;br&gt;&lt;/span&gt;" style="text;html=1;align=center;verticalAlign=middle;resizable=0;points=[];autosize=1;strokeColor=none;fillColor=none;" parent="41" vertex="1">
                    <mxGeometry y="29" width="303" height="200" as="geometry"/>
                </mxCell>
                <mxCell id="46" value="" style="endArrow=open;startArrow=none;endFill=0;startFill=0;endSize=8;html=1;verticalAlign=bottom;labelBackgroundColor=none;strokeWidth=1;exitX=0;exitY=0.5;exitDx=0;exitDy=0;entryX=1.011;entryY=0.98;entryDx=0;entryDy=0;entryPerimeter=0;" parent="1" source="23" target="96" edge="1">
                    <mxGeometry width="160" relative="1" as="geometry">
                        <mxPoint x="-602" y="456.82500000000005" as="sourcePoint"/>
                        <mxPoint x="-719.3599999999999" y="457.17499999999995" as="targetPoint"/>
                    </mxGeometry>
                </mxCell>
                <mxCell id="48" value="&lt;p class=&quot;MsoNormal&quot; style=&quot;text-align: justify&quot;&gt;app.bedmanager&lt;/p&gt;" style="shape=umlFrame;whiteSpace=wrap;html=1;width=120;height=30;boundedLbl=1;verticalAlign=middle;align=left;spacingLeft=5;" parent="1" vertex="1">
                    <mxGeometry x="-60" y="120" width="240" height="480" as="geometry"/>
                </mxCell>
                <mxCell id="49" value="&lt;p class=&quot;MsoNormal&quot; style=&quot;text-align: justify&quot;&gt;app.worklist&lt;/p&gt;" style="shape=umlFrame;whiteSpace=wrap;html=1;width=120;height=30;boundedLbl=1;verticalAlign=middle;align=left;spacingLeft=5;" parent="1" vertex="1">
                    <mxGeometry x="550" y="120" width="200" height="290" as="geometry"/>
                </mxCell>
                <mxCell id="50" value="&lt;p class=&quot;MsoNormal&quot; style=&quot;text-align: justify&quot;&gt;app.training&lt;/p&gt;" style="shape=umlFrame;whiteSpace=wrap;html=1;width=120;height=30;boundedLbl=1;verticalAlign=middle;align=left;spacingLeft=5;" parent="1" vertex="1">
                    <mxGeometry x="280" y="640" width="190" height="130" as="geometry"/>
                </mxCell>
                <mxCell id="51" value="&lt;p class=&quot;MsoNormal&quot; style=&quot;text-align: justify&quot;&gt;app.paramvenue&lt;/p&gt;" style="shape=umlFrame;whiteSpace=wrap;html=1;width=120;height=30;boundedLbl=1;verticalAlign=middle;align=left;spacingLeft=5;" parent="1" vertex="1">
                    <mxGeometry x="288" y="394" width="192" height="206" as="geometry"/>
                </mxCell>
                <mxCell id="52" value="&lt;p class=&quot;MsoNormal&quot; style=&quot;text-align: justify&quot;&gt;app.editique&lt;/p&gt;" style="shape=umlFrame;whiteSpace=wrap;html=1;width=120;height=30;boundedLbl=1;verticalAlign=middle;align=left;spacingLeft=5;" parent="1" vertex="1">
                    <mxGeometry x="280" y="120" width="200" height="220" as="geometry"/>
                </mxCell>
                <mxCell id="53" value="&lt;p class=&quot;MsoNormal&quot; style=&quot;text-align: justify&quot;&gt;app.ged&lt;/p&gt;" style="shape=umlFrame;whiteSpace=wrap;html=1;width=120;height=30;boundedLbl=1;verticalAlign=middle;align=left;spacingLeft=5;" parent="1" vertex="1">
                    <mxGeometry x="-40" y="640" width="200" height="300" as="geometry"/>
                </mxCell>
                <mxCell id="54" value="&lt;p class=&quot;MsoNormal&quot; style=&quot;text-align: justify&quot;&gt;app.protocolisation&lt;/p&gt;" style="shape=umlFrame;whiteSpace=wrap;html=1;width=120;height=30;boundedLbl=1;verticalAlign=middle;align=left;spacingLeft=5;" parent="1" vertex="1">
                    <mxGeometry x="550" y="640" width="200" height="260" as="geometry"/>
                </mxCell>
                <mxCell id="56" value="Content" style="swimlane;fontStyle=1;align=center;verticalAlign=middle;childLayout=stackLayout;horizontal=1;startSize=29;horizontalStack=0;resizeParent=1;resizeParentMax=0;resizeLast=0;collapsible=0;marginBottom=0;html=1;" parent="1" vertex="1">
                    <mxGeometry x="310" y="690" width="140" height="54" as="geometry"/>
                </mxCell>
                <mxCell id="118" style="edgeStyle=none;html=1;entryX=1.005;entryY=0.325;entryDx=0;entryDy=0;entryPerimeter=0;fontSize=30;" parent="1" source="58" target="109" edge="1">
                    <mxGeometry relative="1" as="geometry">
                        <Array as="points">
                            <mxPoint x="810" y="830"/>
                            <mxPoint x="810" y="-248"/>
                        </Array>
                    </mxGeometry>
                </mxCell>
                <mxCell id="58" value="Content" style="swimlane;fontStyle=1;align=center;verticalAlign=middle;childLayout=stackLayout;horizontal=1;startSize=29;horizontalStack=0;resizeParent=1;resizeParentMax=0;resizeLast=0;collapsible=0;marginBottom=0;html=1;" parent="1" vertex="1">
                    <mxGeometry x="580" y="800" width="140" height="54" as="geometry"/>
                </mxCell>
                <mxCell id="115" style="edgeStyle=none;html=1;entryX=0.75;entryY=1;entryDx=0;entryDy=0;fontSize=30;" parent="1" source="60" target="109" edge="1">
                    <mxGeometry relative="1" as="geometry">
                        <Array as="points">
                            <mxPoint x="500" y="470"/>
                        </Array>
                    </mxGeometry>
                </mxCell>
                <mxCell id="60" value="Content" style="swimlane;fontStyle=1;align=center;verticalAlign=middle;childLayout=stackLayout;horizontal=1;startSize=29;horizontalStack=0;resizeParent=1;resizeParentMax=0;resizeLast=0;collapsible=0;marginBottom=0;html=1;" parent="1" vertex="1">
                    <mxGeometry x="312" y="442" width="140" height="54" as="geometry"/>
                </mxCell>
                <mxCell id="62" value="Content" style="swimlane;fontStyle=1;align=center;verticalAlign=middle;childLayout=stackLayout;horizontal=1;startSize=29;horizontalStack=0;resizeParent=1;resizeParentMax=0;resizeLast=0;collapsible=0;marginBottom=0;html=1;" parent="1" vertex="1">
                    <mxGeometry x="-10" y="770" width="140" height="54" as="geometry"/>
                </mxCell>
                <mxCell id="114" style="edgeStyle=none;html=1;entryX=0.722;entryY=1.023;entryDx=0;entryDy=0;fontSize=30;entryPerimeter=0;" parent="1" source="64" target="109" edge="1">
                    <mxGeometry relative="1" as="geometry">
                        <Array as="points">
                            <mxPoint x="490" y="277"/>
                        </Array>
                    </mxGeometry>
                </mxCell>
                <mxCell id="64" value="Content" style="swimlane;fontStyle=1;align=center;verticalAlign=middle;childLayout=stackLayout;horizontal=1;startSize=29;horizontalStack=0;resizeParent=1;resizeParentMax=0;resizeLast=0;collapsible=0;marginBottom=0;html=1;" parent="1" vertex="1">
                    <mxGeometry x="313" y="250" width="140" height="54" as="geometry"/>
                </mxCell>
                <mxCell id="66" value="Content.Occupation" style="swimlane;fontStyle=1;align=center;verticalAlign=middle;childLayout=stackLayout;horizontal=1;startSize=29;horizontalStack=0;resizeParent=1;resizeParentMax=0;resizeLast=0;collapsible=0;marginBottom=0;html=1;" parent="1" vertex="1">
                    <mxGeometry x="-10" y="426" width="140" height="54" as="geometry"/>
                </mxCell>
                <mxCell id="68" value="Header" style="swimlane;fontStyle=1;align=center;verticalAlign=middle;childLayout=stackLayout;horizontal=1;startSize=29;horizontalStack=0;resizeParent=1;resizeParentMax=0;resizeLast=0;collapsible=0;marginBottom=0;html=1;" parent="1" vertex="1">
                    <mxGeometry x="313" y="170" width="140" height="54" as="geometry"/>
                </mxCell>
                <mxCell id="70" value="Header" style="swimlane;fontStyle=1;align=center;verticalAlign=middle;childLayout=stackLayout;horizontal=1;startSize=29;horizontalStack=0;resizeParent=1;resizeParentMax=0;resizeLast=0;collapsible=0;marginBottom=0;html=1;" parent="1" vertex="1">
                    <mxGeometry x="-10" y="340" width="140" height="54" as="geometry"/>
                </mxCell>
                <mxCell id="72" value="Header" style="swimlane;fontStyle=1;align=center;verticalAlign=middle;childLayout=stackLayout;horizontal=1;startSize=29;horizontalStack=0;resizeParent=1;resizeParentMax=0;resizeLast=0;collapsible=0;marginBottom=0;html=1;" parent="1" vertex="1">
                    <mxGeometry x="-10" y="690" width="140" height="54" as="geometry"/>
                </mxCell>
                <mxCell id="74" value="Header" style="swimlane;fontStyle=1;align=center;verticalAlign=middle;childLayout=stackLayout;horizontal=1;startSize=29;horizontalStack=0;resizeParent=1;resizeParentMax=0;resizeLast=0;collapsible=0;marginBottom=0;html=1;" parent="1" vertex="1">
                    <mxGeometry x="580" y="170" width="140" height="54" as="geometry"/>
                </mxCell>
                <mxCell id="92" style="edgeStyle=none;html=1;entryX=0.5;entryY=0;entryDx=0;entryDy=0;" parent="1" source="76" target="58" edge="1">
                    <mxGeometry relative="1" as="geometry"/>
                </mxCell>
                <mxCell id="117" style="edgeStyle=none;html=1;entryX=1;entryY=0.5;entryDx=0;entryDy=0;fontSize=30;" parent="1" source="76" target="109" edge="1">
                    <mxGeometry relative="1" as="geometry">
                        <Array as="points">
                            <mxPoint x="790" y="720"/>
                            <mxPoint x="790" y="-215"/>
                        </Array>
                    </mxGeometry>
                </mxCell>
                <mxCell id="76" value="Header" style="swimlane;fontStyle=1;align=center;verticalAlign=middle;childLayout=stackLayout;horizontal=1;startSize=29;horizontalStack=0;resizeParent=1;resizeParentMax=0;resizeLast=0;collapsible=0;marginBottom=0;html=1;" parent="1" vertex="1">
                    <mxGeometry x="580" y="690" width="140" height="54" as="geometry"/>
                </mxCell>
                <mxCell id="120" style="edgeStyle=none;html=1;entryX=1;entryY=0.75;entryDx=0;entryDy=0;fontSize=30;exitX=1;exitY=0.5;exitDx=0;exitDy=0;" parent="1" source="78" target="109" edge="1">
                    <mxGeometry relative="1" as="geometry">
                        <Array as="points">
                            <mxPoint x="770" y="277"/>
                            <mxPoint x="770" y="-167"/>
                        </Array>
                    </mxGeometry>
                </mxCell>
                <mxCell id="78" value="App" style="swimlane;fontStyle=1;align=center;verticalAlign=middle;childLayout=stackLayout;horizontal=1;startSize=29;horizontalStack=0;resizeParent=1;resizeParentMax=0;resizeLast=0;collapsible=0;marginBottom=0;html=1;" parent="1" vertex="1">
                    <mxGeometry x="580" y="250" width="140" height="54" as="geometry"/>
                </mxCell>
                <mxCell id="80" value="SideBar" style="swimlane;fontStyle=1;align=center;verticalAlign=middle;childLayout=stackLayout;horizontal=1;startSize=29;horizontalStack=0;resizeParent=1;resizeParentMax=0;resizeLast=0;collapsible=0;marginBottom=0;html=1;" parent="1" vertex="1">
                    <mxGeometry x="-10" y="166" width="140" height="54" as="geometry"/>
                </mxCell>
                <mxCell id="82" value="Content.AvaibilityDeepSearch" style="swimlane;fontStyle=1;align=center;verticalAlign=middle;childLayout=stackLayout;horizontal=1;startSize=29;horizontalStack=0;resizeParent=1;resizeParentMax=0;resizeLast=0;collapsible=0;marginBottom=0;html=1;" parent="1" vertex="1">
                    <mxGeometry x="-30" y="260" width="180" height="54" as="geometry"/>
                </mxCell>
                <mxCell id="84" value="&lt;div style=&quot;text-align: right&quot;&gt;&lt;span&gt;quick-search&lt;/span&gt;&lt;/div&gt;" style="swimlane;fontStyle=1;align=center;verticalAlign=middle;childLayout=stackLayout;horizontal=1;startSize=29;horizontalStack=0;resizeParent=1;resizeParentMax=0;resizeLast=0;collapsible=0;marginBottom=0;html=1;" parent="1" vertex="1">
                    <mxGeometry x="-10" y="510" width="140" height="54" as="geometry"/>
                </mxCell>
                <mxCell id="86" value="Tasklist" style="swimlane;fontStyle=1;align=center;verticalAlign=middle;childLayout=stackLayout;horizontal=1;startSize=29;horizontalStack=0;resizeParent=1;resizeParentMax=0;resizeLast=0;collapsible=0;marginBottom=0;html=1;" parent="1" vertex="1">
                    <mxGeometry x="580" y="327" width="140" height="53" as="geometry"/>
                </mxCell>
                <mxCell id="88" style="edgeStyle=none;html=1;entryX=1;entryY=0.5;entryDx=0;entryDy=0;exitX=0.018;exitY=-0.16;exitDx=0;exitDy=0;exitPerimeter=0;" parent="1" target="23" edge="1">
                    <mxGeometry relative="1" as="geometry">
                        <mxPoint x="-7.480000000000018" y="451" as="sourcePoint"/>
                    </mxGeometry>
                </mxCell>
                <mxCell id="89" style="edgeStyle=none;html=1;entryX=1;entryY=0.5;entryDx=0;entryDy=0;" parent="1" target="25" edge="1">
                    <mxGeometry relative="1" as="geometry">
                        <mxPoint x="-10" y="731.5" as="sourcePoint"/>
                    </mxGeometry>
                </mxCell>
                <mxCell id="94" style="edgeStyle=none;html=1;entryX=1.007;entryY=0.662;entryDx=0;entryDy=0;entryPerimeter=0;" parent="1" target="101" edge="1">
                    <mxGeometry relative="1" as="geometry">
                        <mxPoint x="60" y="894" as="sourcePoint"/>
                        <mxPoint x="-350" y="1010" as="targetPoint"/>
                        <Array as="points">
                            <mxPoint x="60" y="1000"/>
                        </Array>
                    </mxGeometry>
                </mxCell>
                <mxCell id="108" style="edgeStyle=none;html=1;exitX=0.5;exitY=0;exitDx=0;exitDy=0;" parent="1" source="23" target="98" edge="1">
                    <mxGeometry relative="1" as="geometry"/>
                </mxCell>
                <mxCell id="109" value="PortalAPI" style="html=1;align=center;verticalAlign=middle;rounded=1;absoluteArcSize=1;arcSize=10;dashed=0;fontSize=20;" parent="1" vertex="1">
                    <mxGeometry x="110" y="-310" width="530" height="190" as="geometry"/>
                </mxCell>
                <mxCell id="eOnvPWi8rGCo1wm_rW63-120" value="BedManager" style="shape=umlFrame;whiteSpace=wrap;html=1;width=120;height=30;boundedLbl=1;verticalAlign=middle;align=left;spacingLeft=5;" parent="1" vertex="1">
                    <mxGeometry x="-886.48" y="-594" width="280" height="1090" as="geometry"/>
                </mxCell>
                <mxCell id="eOnvPWi8rGCo1wm_rW63-121" value="Event" style="swimlane;fontStyle=1;align=center;verticalAlign=middle;childLayout=stackLayout;horizontal=1;startSize=29;horizontalStack=0;resizeParent=1;resizeParentMax=0;resizeLast=0;collapsible=0;marginBottom=0;html=1;" parent="1" vertex="1">
                    <mxGeometry x="-853.48" y="-544" width="220" height="1019" as="geometry"/>
                </mxCell>
                <mxCell id="eOnvPWi8rGCo1wm_rW63-122" value="&lt;u&gt;&lt;b&gt;&lt;br&gt;&lt;br&gt;Props :&amp;nbsp;&lt;/b&gt;&lt;br&gt;&lt;div&gt;&lt;b&gt;&lt;br&gt;&lt;/b&gt;&lt;/div&gt;&lt;/u&gt;id:&amp;nbsp; ; default : null&lt;br&gt;&lt;p class=&quot;MsoNormal&quot;&gt;patient:&amp;nbsp; ; default&amp;nbsp;: null&lt;/p&gt;&lt;p class=&quot;MsoNormal&quot;&gt;startDate:&amp;nbsp; ; default&amp;nbsp;: null&lt;/p&gt;&lt;p class=&quot;MsoNormal&quot;&gt;endDate:&amp;nbsp; ; default&amp;nbsp;: null&lt;/p&gt;&lt;span&gt;confirmedEndDate:&amp;nbsp; ; default&amp;nbsp;: null&lt;/span&gt;&lt;br&gt;&lt;br&gt;&lt;span&gt;optimalEndDate:&amp;nbsp; ; default&amp;nbsp;: null&lt;/span&gt;&lt;br&gt;&lt;br&gt;&lt;span&gt;duration:&amp;nbsp; ; default&amp;nbsp;: null&lt;/span&gt;&lt;br&gt;&lt;br&gt;&lt;span&gt;motive:&amp;nbsp; ; default&amp;nbsp;: null&lt;/span&gt;&lt;br&gt;&lt;br&gt;&lt;span&gt;comment:&amp;nbsp; ; default&amp;nbsp;: null&lt;/span&gt;&lt;br&gt;&lt;br&gt;&lt;span&gt;pole:&amp;nbsp; ; default&amp;nbsp;: null&lt;/span&gt;&lt;br&gt;&lt;br&gt;&lt;span&gt;service:&amp;nbsp; ; default&amp;nbsp;: null&lt;/span&gt;&lt;br&gt;&lt;br&gt;&lt;span&gt;uf:&amp;nbsp; ; default&amp;nbsp;: null&lt;/span&gt;&lt;br&gt;&lt;br&gt;&lt;span&gt;resourceId:&amp;nbsp; ; default&amp;nbsp;: null&lt;/span&gt;&lt;br&gt;&lt;br&gt;&lt;span&gt;confirmed:&amp;nbsp; ; default&amp;nbsp;: null&lt;/span&gt;&lt;br&gt;&lt;br&gt;&lt;span&gt;resource1:&amp;nbsp; ; default&amp;nbsp;: null&lt;/span&gt;&lt;br&gt;&lt;br&gt;&lt;span&gt;typeDoc1:&amp;nbsp; ; default&amp;nbsp;: null&lt;/span&gt;&lt;br&gt;&lt;br&gt;&lt;span&gt;resource2:&amp;nbsp; ; default&amp;nbsp;: null&lt;/span&gt;&lt;br&gt;&lt;br&gt;&lt;span&gt;typeDoc2:&amp;nbsp; ; default&amp;nbsp;: null&lt;/span&gt;&lt;br&gt;&lt;br&gt;&lt;span&gt;resource3:&amp;nbsp; ; default&amp;nbsp;: null&lt;/span&gt;&lt;br&gt;&lt;br&gt;&lt;span&gt;typeDoc3:&amp;nbsp; ; default&amp;nbsp;: null&lt;/span&gt;&lt;br&gt;&lt;br&gt;&lt;span&gt;resource4:&amp;nbsp; ; default&amp;nbsp;: null&lt;/span&gt;&lt;br&gt;&lt;br&gt;&lt;span&gt;typeDoc4:&amp;nbsp; ; default&amp;nbsp;: null&lt;/span&gt;&lt;br&gt;&lt;br&gt;&lt;span&gt;type:&amp;nbsp; ; default&amp;nbsp;: null&lt;/span&gt;&lt;br&gt;&lt;br&gt;&lt;span&gt;autoGenerated:&amp;nbsp; ; default&amp;nbsp;: null&lt;/span&gt;&lt;br&gt;&lt;br&gt;&lt;span&gt;status:&amp;nbsp; ; default&amp;nbsp;: null&lt;/span&gt;&lt;br&gt;&lt;br&gt;&lt;span&gt;color:&amp;nbsp; ; default&amp;nbsp;: null&lt;/span&gt;&lt;br&gt;&lt;br&gt;&lt;span&gt;visible:&amp;nbsp; ; default&amp;nbsp;: null&lt;/span&gt;&lt;br&gt;&lt;br&gt;&lt;span&gt;active:&amp;nbsp; ; default&amp;nbsp;: null&lt;/span&gt;&lt;br&gt;&lt;br&gt;&lt;span&gt;selected:&amp;nbsp; ; default&amp;nbsp;: null&lt;/span&gt;&lt;br&gt;&lt;br&gt;&lt;span&gt;draggable:&amp;nbsp; ; default&amp;nbsp;: null&lt;/span&gt;&lt;br&gt;&lt;br&gt;&lt;span&gt;resizable:&amp;nbsp; ; default&amp;nbsp;: null&lt;/span&gt;&lt;br&gt;&lt;br&gt;&lt;span&gt;cssClasses:&amp;nbsp; ; default&amp;nbsp;: null&lt;/span&gt;&lt;br&gt;&lt;br&gt;&lt;span&gt;dayWidthInPixels:&amp;nbsp; ; default&amp;nbsp;: null&lt;br&gt;&lt;br&gt;&lt;br&gt;&lt;/span&gt;" style="text;html=1;align=center;verticalAlign=middle;resizable=0;points=[];autosize=1;strokeColor=none;fillColor=none;" parent="eOnvPWi8rGCo1wm_rW63-121" vertex="1">
                    <mxGeometry y="29" width="220" height="990" as="geometry"/>
                </mxCell>
                <mxCell id="eOnvPWi8rGCo1wm_rW63-123" value="Components" style="shape=umlFrame;whiteSpace=wrap;html=1;width=120;height=30;boundedLbl=1;verticalAlign=middle;align=left;spacingLeft=5;" parent="1" vertex="1">
                    <mxGeometry x="-920" y="-1147" width="770" height="2187" as="geometry"/>
                </mxCell>
                <mxCell id="eOnvPWi8rGCo1wm_rW63-124" value="&lt;p class=&quot;MsoNormal&quot; style=&quot;text-align: justify&quot;&gt;AppTemplateDefault&lt;/p&gt;" style="swimlane;fontStyle=1;align=center;verticalAlign=middle;childLayout=stackLayout;horizontal=1;startSize=29;horizontalStack=0;resizeParent=1;resizeParentMax=0;resizeLast=0;collapsible=0;marginBottom=0;html=1;" parent="1" vertex="1">
                    <mxGeometry x="-750" y="782" width="140" height="54" as="geometry"/>
                </mxCell>
                <mxCell id="eOnvPWi8rGCo1wm_rW63-125" value="Modal" style="swimlane;fontStyle=1;align=center;verticalAlign=middle;childLayout=stackLayout;horizontal=1;startSize=29;horizontalStack=0;resizeParent=1;resizeParentMax=0;resizeLast=0;collapsible=0;marginBottom=0;html=1;" parent="1" vertex="1">
                    <mxGeometry x="-490" y="836" width="140" height="54" as="geometry"/>
                </mxCell>
                <mxCell id="eOnvPWi8rGCo1wm_rW63-126" value="&lt;p class=&quot;MsoNormal&quot; style=&quot;text-align: justify&quot;&gt;Crossplanning&lt;/p&gt;" style="swimlane;fontStyle=1;align=center;verticalAlign=middle;childLayout=stackLayout;horizontal=1;startSize=29;horizontalStack=0;resizeParent=1;resizeParentMax=0;resizeLast=0;collapsible=0;marginBottom=0;html=1;" parent="1" vertex="1">
                    <mxGeometry x="-558.5" y="253.5" width="380" height="399" as="geometry"/>
                </mxCell>
                <mxCell id="eOnvPWi8rGCo1wm_rW63-127" value="&lt;br&gt;&lt;br&gt;&lt;b&gt;&lt;u&gt;Props &lt;/u&gt;&lt;/b&gt;:&amp;nbsp;&lt;br&gt;&lt;p class=&quot;MsoNormal&quot;&gt;readonly availabilities!: Array&amp;lt;any&amp;gt;; default: () =&amp;gt; {return []}&lt;/p&gt;&lt;p class=&quot;MsoNormal&quot;&gt;readonly occupations!: Array&amp;lt;any&amp;gt;; default: () =&amp;gt; {return []}&lt;/p&gt;&lt;p class=&quot;MsoNormal&quot;&gt;readonly scheduling!: Array&amp;lt;any&amp;gt;; default: () =&amp;gt; {return []}&lt;/p&gt;&lt;p class=&quot;MsoNormal&quot;&gt;readonly resourcesTypes!: Array&amp;lt;any&amp;gt;; default: () =&amp;gt; {return []}&lt;/p&gt;&lt;p class=&quot;MsoNormal&quot;&gt;default: 0 readonly dayHourStart!: number; default: () =&amp;gt; {return []}&lt;/p&gt;&lt;p class=&quot;MsoNormal&quot;&gt;default: 23 readonly dayHourEnd!: number; default: () =&amp;gt; {return []}&lt;/p&gt;&lt;p class=&quot;MsoNormal&quot;&gt;readonly resources!: Array&amp;lt;any&amp;gt;; default: &lt;/p&gt;&lt;span&gt;readonly beginDate!: Date; default:&lt;/span&gt;&lt;br&gt;&lt;br&gt;&lt;span&gt;visibleDays!: number; default: 1&lt;/span&gt;&lt;br&gt;&lt;br&gt;&lt;span&gt;slotDuration!: number;&lt;/span&gt;&lt;br&gt;&lt;br&gt;&lt;span&gt;schedulingMode!: Array&amp;lt;any&amp;gt;; default: () =&amp;gt; {return&amp;nbsp;&lt;/span&gt;&lt;span&gt;false}&lt;br&gt;&lt;/span&gt;&lt;span&gt;&lt;br&gt;&lt;br&gt;&lt;/span&gt;" style="text;html=1;align=center;verticalAlign=middle;resizable=0;points=[];autosize=1;strokeColor=none;fillColor=none;" parent="eOnvPWi8rGCo1wm_rW63-126" vertex="1">
                    <mxGeometry y="29" width="380" height="370" as="geometry"/>
                </mxCell>
                <mxCell id="eOnvPWi8rGCo1wm_rW63-128" value="&lt;p class=&quot;MsoNormal&quot; style=&quot;text-align: justify&quot;&gt;Menu&lt;/p&gt;" style="swimlane;fontStyle=1;align=center;verticalAlign=middle;childLayout=stackLayout;horizontal=1;startSize=29;horizontalStack=0;resizeParent=1;resizeParentMax=0;resizeLast=0;collapsible=0;marginBottom=0;html=1;" parent="1" vertex="1">
                    <mxGeometry x="-460" y="680" width="140" height="109" as="geometry"/>
                </mxCell>
                <mxCell id="eOnvPWi8rGCo1wm_rW63-129" value="&lt;br&gt;&lt;b&gt;&lt;u&gt;Props :&lt;br&gt;&lt;/u&gt;&lt;/b&gt;&lt;br&gt;menu:&amp;nbsp; Array&lt;br&gt;&lt;br&gt;" style="text;html=1;align=center;verticalAlign=middle;resizable=0;points=[];autosize=1;strokeColor=none;fillColor=none;" parent="eOnvPWi8rGCo1wm_rW63-128" vertex="1">
                    <mxGeometry y="29" width="140" height="80" as="geometry"/>
                </mxCell>
                <mxCell id="eOnvPWi8rGCo1wm_rW63-130" value="&lt;p class=&quot;MsoNormal&quot; style=&quot;text-align: justify&quot;&gt;VerticalDailyOrganiser&lt;/p&gt;" style="swimlane;fontStyle=1;align=center;verticalAlign=middle;childLayout=stackLayout;horizontal=1;startSize=29;horizontalStack=0;resizeParent=1;resizeParentMax=0;resizeLast=0;collapsible=0;marginBottom=0;html=1;" parent="1" vertex="1">
                    <mxGeometry x="-517" y="-940" width="310" height="759" as="geometry"/>
                </mxCell>
                <mxCell id="eOnvPWi8rGCo1wm_rW63-131" value="&lt;b&gt;&lt;u&gt;&lt;br&gt;&lt;br&gt;Props&lt;/u&gt;&lt;/b&gt; :&amp;nbsp;&lt;br&gt;&lt;p class=&quot;MsoNormal&quot;&gt;settings: {type: Object, default:&amp;nbsp; () =&amp;gt; {return {&lt;span&gt;&amp;nbsp;&lt;/span&gt;&lt;/p&gt;&lt;p class=&quot;MsoNormal&quot;&gt;&lt;span&gt;slotDuration :&amp;nbsp; 20,&lt;/span&gt;&lt;span&gt;&amp;nbsp;&lt;/span&gt;&lt;/p&gt;&lt;p class=&quot;MsoNormal&quot;&gt;&lt;span&gt;firstSlotHour :&amp;nbsp; '07:00',&lt;/span&gt;&lt;/p&gt;&lt;span&gt;lastSlotHour :&amp;nbsp; '21:00',&lt;/span&gt;&lt;br&gt;&lt;p class=&quot;MsoNormal&quot;&gt;}}},&lt;/p&gt;&lt;p class=&quot;MsoNormal&quot;&gt;&amp;nbsp; &amp;nbsp; &amp;nbsp;&lt;br&gt;availabilities: {type: Array, default: () =&amp;gt; {return [&lt;/p&gt;&lt;p class=&quot;MsoNormal&quot;&gt;&amp;nbsp;{&lt;/p&gt;&lt;p class=&quot;MsoNormal&quot;&gt;&amp;nbsp; &amp;nbsp; &amp;nbsp; &amp;nbsp; &amp;nbsp; &amp;nbsp;&amp;nbsp;&lt;br&gt;start: '08:00',&lt;/p&gt;&lt;p class=&quot;MsoNormal&quot;&gt;&amp;nbsp; &amp;nbsp; &amp;nbsp; &amp;nbsp; &amp;nbsp;&amp;nbsp;&lt;br&gt;end: '12h00',&lt;/p&gt;&lt;p class=&quot;MsoNormal&quot;&gt;type: 'venues',&lt;/p&gt;&lt;p class=&quot;MsoNormal&quot;&gt;&amp;nbsp;},&lt;/p&gt;&lt;p class=&quot;MsoNormal&quot;&gt;&amp;nbsp;{&lt;span&gt;&amp;nbsp; &amp;nbsp; &amp;nbsp; &amp;nbsp; &amp;nbsp;&amp;nbsp;&lt;/span&gt;&lt;/p&gt;&lt;p class=&quot;MsoNormal&quot;&gt;start: '13:00',&lt;/p&gt;&lt;p class=&quot;MsoNormal&quot;&gt;&amp;nbsp; &amp;nbsp; &amp;nbsp; &amp;nbsp; &amp;nbsp;&lt;br&gt;end: '19h00',&lt;/p&gt;&lt;p class=&quot;MsoNormal&quot;&gt;&amp;nbsp; &amp;nbsp; &amp;nbsp; &amp;nbsp; &amp;nbsp;&amp;nbsp;&lt;br&gt;type: 'venues',&lt;/p&gt;&lt;p class=&quot;MsoNormal&quot;&gt;&amp;nbsp; &amp;nbsp; &amp;nbsp; &amp;nbsp; },&lt;/p&gt;&lt;p class=&quot;MsoNormal&quot;&gt;]}},&lt;/p&gt;&lt;p class=&quot;MsoNormal&quot;&gt;&amp;nbsp;events: {type: Array, default: () =&amp;gt; {return []}},&lt;/p&gt;&lt;p class=&quot;MsoNormal&quot;&gt;&amp;nbsp;commands: {type: Array, default: () =&amp;gt; {return []}},&lt;/p&gt;&lt;p class=&quot;MsoNormal&quot;&gt;&amp;nbsp;mode: {type: String, default:'day'},&lt;/p&gt;&lt;span&gt;date:&amp;nbsp;&lt;/span&gt;&lt;span&gt;{type: Date, default:() =&amp;gt; {return new Date()}},&lt;/span&gt;&lt;span&gt;&lt;br&gt;&lt;/span&gt;&lt;p class=&quot;MsoNormal&quot;&gt;&lt;br&gt;&lt;/p&gt;&lt;p class=&quot;MsoNormal&quot;&gt;&lt;br&gt;&lt;/p&gt;" style="text;html=1;align=center;verticalAlign=middle;resizable=0;points=[];autosize=1;strokeColor=none;fillColor=none;" parent="eOnvPWi8rGCo1wm_rW63-130" vertex="1">
                    <mxGeometry y="29" width="310" height="730" as="geometry"/>
                </mxCell>
                <mxCell id="eOnvPWi8rGCo1wm_rW63-132" style="edgeStyle=none;html=1;fontSize=30;entryX=0.781;entryY=1.011;entryDx=0;entryDy=0;entryPerimeter=0;" parent="1" source="eOnvPWi8rGCo1wm_rW63-133" target="eOnvPWi8rGCo1wm_rW63-183" edge="1">
                    <mxGeometry relative="1" as="geometry">
                        <mxPoint x="520" y="-120" as="targetPoint"/>
                        <Array as="points">
                            <mxPoint x="520" y="547"/>
                        </Array>
                    </mxGeometry>
                </mxCell>
                <mxCell id="eOnvPWi8rGCo1wm_rW63-133" value="Header" style="swimlane;fontStyle=1;align=center;verticalAlign=middle;childLayout=stackLayout;horizontal=1;startSize=29;horizontalStack=0;resizeParent=1;resizeParentMax=0;resizeLast=0;collapsible=0;marginBottom=0;html=1;" parent="1" vertex="1">
                    <mxGeometry x="312" y="520" width="140" height="54" as="geometry"/>
                </mxCell>
                <mxCell id="eOnvPWi8rGCo1wm_rW63-134" style="edgeStyle=none;html=1;entryX=1;entryY=0.5;entryDx=0;entryDy=0;" parent="1" source="eOnvPWi8rGCo1wm_rW63-135" target="eOnvPWi8rGCo1wm_rW63-125" edge="1">
                    <mxGeometry relative="1" as="geometry"/>
                </mxCell>
                <mxCell id="eOnvPWi8rGCo1wm_rW63-135" value="SideBar" style="swimlane;fontStyle=1;align=center;verticalAlign=middle;childLayout=stackLayout;horizontal=1;startSize=29;horizontalStack=0;resizeParent=1;resizeParentMax=0;resizeLast=0;collapsible=0;marginBottom=0;html=1;" parent="1" vertex="1">
                    <mxGeometry x="-10" y="840" width="140" height="54" as="geometry"/>
                </mxCell>
                <mxCell id="eOnvPWi8rGCo1wm_rW63-136" value="&lt;p class=&quot;MsoNormal&quot; style=&quot;text-align: justify&quot;&gt;Notifications&lt;/p&gt;" style="swimlane;fontStyle=1;align=center;verticalAlign=middle;childLayout=stackLayout;horizontal=1;startSize=29;horizontalStack=0;resizeParent=1;resizeParentMax=0;resizeLast=0;collapsible=0;marginBottom=0;html=1;" parent="1" vertex="1">
                    <mxGeometry x="-780" y="-1084" width="140" height="54" as="geometry"/>
                </mxCell>
                <mxCell id="eOnvPWi8rGCo1wm_rW63-137" value="&lt;p class=&quot;MsoNormal&quot; style=&quot;text-align: justify&quot;&gt;TreeView&lt;/p&gt;" style="swimlane;fontStyle=1;align=center;verticalAlign=middle;childLayout=stackLayout;horizontal=1;startSize=29;horizontalStack=0;resizeParent=1;resizeParentMax=0;resizeLast=0;collapsible=0;marginBottom=0;html=1;" parent="1" vertex="1">
                    <mxGeometry x="-487" y="920" width="140" height="109" as="geometry"/>
                </mxCell>
                <mxCell id="eOnvPWi8rGCo1wm_rW63-138" value="&lt;br&gt;&lt;b&gt;&lt;u&gt;Props &lt;/u&gt;&lt;/b&gt;:&lt;br&gt;&lt;br&gt;Tree : [Array, Object]&lt;br&gt;&lt;br&gt;" style="text;html=1;align=center;verticalAlign=middle;resizable=0;points=[];autosize=1;strokeColor=none;fillColor=none;" parent="eOnvPWi8rGCo1wm_rW63-137" vertex="1">
                    <mxGeometry y="29" width="140" height="80" as="geometry"/>
                </mxCell>
                <mxCell id="eOnvPWi8rGCo1wm_rW63-139" style="edgeStyle=none;html=1;exitX=0;exitY=0.5;exitDx=0;exitDy=0;entryX=1;entryY=0.5;entryDx=0;entryDy=0;" parent="1" source="eOnvPWi8rGCo1wm_rW63-140" target="eOnvPWi8rGCo1wm_rW63-136" edge="1">
                    <mxGeometry relative="1" as="geometry"/>
                </mxCell>
                <mxCell id="eOnvPWi8rGCo1wm_rW63-140" value="&lt;p class=&quot;MsoNormal&quot; style=&quot;text-align: justify&quot;&gt;Login&lt;/p&gt;" style="swimlane;fontStyle=1;align=center;verticalAlign=middle;childLayout=stackLayout;horizontal=1;startSize=29;horizontalStack=0;resizeParent=1;resizeParentMax=0;resizeLast=0;collapsible=0;marginBottom=0;html=1;" parent="1" vertex="1">
                    <mxGeometry x="-347" y="-1084" width="140" height="54" as="geometry"/>
                </mxCell>
                <mxCell id="eOnvPWi8rGCo1wm_rW63-141" value="&lt;p class=&quot;MsoNormal&quot; style=&quot;text-align: justify&quot;&gt;DropDownList&lt;/p&gt;" style="swimlane;fontStyle=1;align=center;verticalAlign=middle;childLayout=stackLayout;horizontal=1;startSize=29;horizontalStack=0;resizeParent=1;resizeParentMax=0;resizeLast=0;collapsible=0;marginBottom=0;html=1;" parent="1" vertex="1">
                    <mxGeometry x="-517" y="-109" width="303" height="229" as="geometry"/>
                </mxCell>
                <mxCell id="eOnvPWi8rGCo1wm_rW63-142" value="&lt;br&gt;&lt;b&gt;&lt;u&gt;Props :&amp;nbsp;&lt;br&gt;&lt;/u&gt;&lt;/b&gt;&lt;p class=&quot;MsoNormal&quot;&gt;value&amp;nbsp;:&amp;nbsp; ; default:&lt;br&gt;() =&amp;gt;&amp;nbsp; []&lt;/p&gt;&lt;p class=&quot;MsoNormal&quot;&gt;options&amp;nbsp;:&amp;nbsp; ; default:&lt;br&gt;() =&amp;gt;&amp;nbsp; [{ id: 0, label: 'No options&lt;br&gt;provided' }, { id: 1, label: 'example list to be happy' }]&lt;/p&gt;&lt;span&gt;valueKey&amp;nbsp;:&amp;nbsp; ;&amp;nbsp;&amp;nbsp; &amp;nbsp;default: 'id'&amp;nbsp;&amp;nbsp;&lt;/span&gt;&lt;br&gt;&lt;span&gt;&lt;br&gt;labelKey&amp;nbsp;:&amp;nbsp; ;&amp;nbsp; &amp;nbsp;default: 'label'&amp;nbsp;&amp;nbsp;&lt;br&gt;&lt;br&gt;&lt;/span&gt;" style="text;html=1;align=center;verticalAlign=middle;resizable=0;points=[];autosize=1;strokeColor=none;fillColor=none;" parent="eOnvPWi8rGCo1wm_rW63-141" vertex="1">
                    <mxGeometry y="29" width="303" height="200" as="geometry"/>
                </mxCell>
                <mxCell id="eOnvPWi8rGCo1wm_rW63-143" value="" style="endArrow=open;startArrow=none;endFill=0;startFill=0;endSize=8;html=1;verticalAlign=bottom;labelBackgroundColor=none;strokeWidth=1;exitX=0;exitY=0.5;exitDx=0;exitDy=0;entryX=1.011;entryY=0.98;entryDx=0;entryDy=0;entryPerimeter=0;" parent="1" source="eOnvPWi8rGCo1wm_rW63-126" target="eOnvPWi8rGCo1wm_rW63-122" edge="1">
                    <mxGeometry width="160" relative="1" as="geometry">
                        <mxPoint x="-602" y="456.82500000000005" as="sourcePoint"/>
                        <mxPoint x="-719.3599999999999" y="457.17499999999995" as="targetPoint"/>
                    </mxGeometry>
                </mxCell>
                <mxCell id="eOnvPWi8rGCo1wm_rW63-144" value="&lt;p class=&quot;MsoNormal&quot; style=&quot;text-align: justify&quot;&gt;app.bedmanager&lt;/p&gt;" style="shape=umlFrame;whiteSpace=wrap;html=1;width=120;height=30;boundedLbl=1;verticalAlign=middle;align=left;spacingLeft=5;" parent="1" vertex="1">
                    <mxGeometry x="-60" y="120" width="240" height="480" as="geometry"/>
                </mxCell>
                <mxCell id="eOnvPWi8rGCo1wm_rW63-145" value="&lt;p class=&quot;MsoNormal&quot; style=&quot;text-align: justify&quot;&gt;app.worklist&lt;/p&gt;" style="shape=umlFrame;whiteSpace=wrap;html=1;width=120;height=30;boundedLbl=1;verticalAlign=middle;align=left;spacingLeft=5;" parent="1" vertex="1">
                    <mxGeometry x="550" y="120" width="200" height="290" as="geometry"/>
                </mxCell>
                <mxCell id="eOnvPWi8rGCo1wm_rW63-146" value="&lt;p class=&quot;MsoNormal&quot; style=&quot;text-align: justify&quot;&gt;app.training&lt;/p&gt;" style="shape=umlFrame;whiteSpace=wrap;html=1;width=120;height=30;boundedLbl=1;verticalAlign=middle;align=left;spacingLeft=5;" parent="1" vertex="1">
                    <mxGeometry x="280" y="640" width="190" height="130" as="geometry"/>
                </mxCell>
                <mxCell id="eOnvPWi8rGCo1wm_rW63-147" value="&lt;p class=&quot;MsoNormal&quot; style=&quot;text-align: justify&quot;&gt;app.paramvenue&lt;/p&gt;" style="shape=umlFrame;whiteSpace=wrap;html=1;width=120;height=30;boundedLbl=1;verticalAlign=middle;align=left;spacingLeft=5;" parent="1" vertex="1">
                    <mxGeometry x="288" y="394" width="192" height="206" as="geometry"/>
                </mxCell>
                <mxCell id="eOnvPWi8rGCo1wm_rW63-148" value="&lt;p class=&quot;MsoNormal&quot; style=&quot;text-align: justify&quot;&gt;app.editique&lt;/p&gt;" style="shape=umlFrame;whiteSpace=wrap;html=1;width=120;height=30;boundedLbl=1;verticalAlign=middle;align=left;spacingLeft=5;" parent="1" vertex="1">
                    <mxGeometry x="280" y="120" width="200" height="220" as="geometry"/>
                </mxCell>
                <mxCell id="eOnvPWi8rGCo1wm_rW63-149" value="&lt;p class=&quot;MsoNormal&quot; style=&quot;text-align: justify&quot;&gt;app.ged&lt;/p&gt;" style="shape=umlFrame;whiteSpace=wrap;html=1;width=120;height=30;boundedLbl=1;verticalAlign=middle;align=left;spacingLeft=5;" parent="1" vertex="1">
                    <mxGeometry x="-40" y="640" width="200" height="300" as="geometry"/>
                </mxCell>
                <mxCell id="eOnvPWi8rGCo1wm_rW63-150" value="&lt;p class=&quot;MsoNormal&quot; style=&quot;text-align: justify&quot;&gt;app.protocolisation&lt;/p&gt;" style="shape=umlFrame;whiteSpace=wrap;html=1;width=120;height=30;boundedLbl=1;verticalAlign=middle;align=left;spacingLeft=5;" parent="1" vertex="1">
                    <mxGeometry x="550" y="640" width="200" height="260" as="geometry"/>
                </mxCell>
                <mxCell id="eOnvPWi8rGCo1wm_rW63-151" value="Views" style="shape=umlFrame;whiteSpace=wrap;html=1;width=120;height=30;boundedLbl=1;verticalAlign=middle;align=left;spacingLeft=5;" parent="1" vertex="1">
                    <mxGeometry x="-80" y="60" width="900" height="980" as="geometry"/>
                </mxCell>
                <mxCell id="eOnvPWi8rGCo1wm_rW63-152" value="Content" style="swimlane;fontStyle=1;align=center;verticalAlign=middle;childLayout=stackLayout;horizontal=1;startSize=29;horizontalStack=0;resizeParent=1;resizeParentMax=0;resizeLast=0;collapsible=0;marginBottom=0;html=1;" parent="1" vertex="1">
                    <mxGeometry x="310" y="690" width="140" height="54" as="geometry"/>
                </mxCell>
                <mxCell id="eOnvPWi8rGCo1wm_rW63-153" style="edgeStyle=none;html=1;entryX=1.005;entryY=0.325;entryDx=0;entryDy=0;entryPerimeter=0;fontSize=30;" parent="1" source="eOnvPWi8rGCo1wm_rW63-154" target="eOnvPWi8rGCo1wm_rW63-183" edge="1">
                    <mxGeometry relative="1" as="geometry">
                        <Array as="points">
                            <mxPoint x="810" y="830"/>
                            <mxPoint x="810" y="-248"/>
                        </Array>
                    </mxGeometry>
                </mxCell>
                <mxCell id="eOnvPWi8rGCo1wm_rW63-154" value="Content" style="swimlane;fontStyle=1;align=center;verticalAlign=middle;childLayout=stackLayout;horizontal=1;startSize=29;horizontalStack=0;resizeParent=1;resizeParentMax=0;resizeLast=0;collapsible=0;marginBottom=0;html=1;" parent="1" vertex="1">
                    <mxGeometry x="580" y="800" width="140" height="54" as="geometry"/>
                </mxCell>
                <mxCell id="eOnvPWi8rGCo1wm_rW63-155" style="edgeStyle=none;html=1;entryX=0.75;entryY=1;entryDx=0;entryDy=0;fontSize=30;" parent="1" source="eOnvPWi8rGCo1wm_rW63-156" target="eOnvPWi8rGCo1wm_rW63-183" edge="1">
                    <mxGeometry relative="1" as="geometry">
                        <Array as="points">
                            <mxPoint x="500" y="470"/>
                        </Array>
                    </mxGeometry>
                </mxCell>
                <mxCell id="eOnvPWi8rGCo1wm_rW63-156" value="Content" style="swimlane;fontStyle=1;align=center;verticalAlign=middle;childLayout=stackLayout;horizontal=1;startSize=29;horizontalStack=0;resizeParent=1;resizeParentMax=0;resizeLast=0;collapsible=0;marginBottom=0;html=1;" parent="1" vertex="1">
                    <mxGeometry x="312" y="442" width="140" height="54" as="geometry"/>
                </mxCell>
                <mxCell id="eOnvPWi8rGCo1wm_rW63-157" value="Content" style="swimlane;fontStyle=1;align=center;verticalAlign=middle;childLayout=stackLayout;horizontal=1;startSize=29;horizontalStack=0;resizeParent=1;resizeParentMax=0;resizeLast=0;collapsible=0;marginBottom=0;html=1;" parent="1" vertex="1">
                    <mxGeometry x="-10" y="770" width="140" height="54" as="geometry"/>
                </mxCell>
                <mxCell id="eOnvPWi8rGCo1wm_rW63-158" style="edgeStyle=none;html=1;entryX=0.722;entryY=1.023;entryDx=0;entryDy=0;fontSize=30;entryPerimeter=0;" parent="1" source="eOnvPWi8rGCo1wm_rW63-159" target="eOnvPWi8rGCo1wm_rW63-183" edge="1">
                    <mxGeometry relative="1" as="geometry">
                        <Array as="points">
                            <mxPoint x="490" y="277"/>
                        </Array>
                    </mxGeometry>
                </mxCell>
                <mxCell id="eOnvPWi8rGCo1wm_rW63-159" value="Content" style="swimlane;fontStyle=1;align=center;verticalAlign=middle;childLayout=stackLayout;horizontal=1;startSize=29;horizontalStack=0;resizeParent=1;resizeParentMax=0;resizeLast=0;collapsible=0;marginBottom=0;html=1;" parent="1" vertex="1">
                    <mxGeometry x="313" y="250" width="140" height="54" as="geometry"/>
                </mxCell>
                <mxCell id="eOnvPWi8rGCo1wm_rW63-161" value="Content.Occupation" style="swimlane;fontStyle=1;align=center;verticalAlign=middle;childLayout=stackLayout;horizontal=1;startSize=29;horizontalStack=0;resizeParent=1;resizeParentMax=0;resizeLast=0;collapsible=0;marginBottom=0;html=1;" parent="1" vertex="1">
                    <mxGeometry x="-10" y="426" width="140" height="54" as="geometry"/>
                </mxCell>
                <mxCell id="eOnvPWi8rGCo1wm_rW63-162" value="Header" style="swimlane;fontStyle=1;align=center;verticalAlign=middle;childLayout=stackLayout;horizontal=1;startSize=29;horizontalStack=0;resizeParent=1;resizeParentMax=0;resizeLast=0;collapsible=0;marginBottom=0;html=1;" parent="1" vertex="1">
                    <mxGeometry x="313" y="170" width="140" height="54" as="geometry"/>
                </mxCell>
                <mxCell id="eOnvPWi8rGCo1wm_rW63-163" value="Header" style="swimlane;fontStyle=1;align=center;verticalAlign=middle;childLayout=stackLayout;horizontal=1;startSize=29;horizontalStack=0;resizeParent=1;resizeParentMax=0;resizeLast=0;collapsible=0;marginBottom=0;html=1;" parent="1" vertex="1">
                    <mxGeometry x="-10" y="340" width="140" height="54" as="geometry"/>
                </mxCell>
                <mxCell id="eOnvPWi8rGCo1wm_rW63-164" value="Header" style="swimlane;fontStyle=1;align=center;verticalAlign=middle;childLayout=stackLayout;horizontal=1;startSize=29;horizontalStack=0;resizeParent=1;resizeParentMax=0;resizeLast=0;collapsible=0;marginBottom=0;html=1;" parent="1" vertex="1">
                    <mxGeometry x="-10" y="690" width="140" height="54" as="geometry"/>
                </mxCell>
                <mxCell id="eOnvPWi8rGCo1wm_rW63-165" value="Header" style="swimlane;fontStyle=1;align=center;verticalAlign=middle;childLayout=stackLayout;horizontal=1;startSize=29;horizontalStack=0;resizeParent=1;resizeParentMax=0;resizeLast=0;collapsible=0;marginBottom=0;html=1;" parent="1" vertex="1">
                    <mxGeometry x="580" y="170" width="140" height="54" as="geometry"/>
                </mxCell>
                <mxCell id="eOnvPWi8rGCo1wm_rW63-166" style="edgeStyle=none;html=1;entryX=0.5;entryY=0;entryDx=0;entryDy=0;" parent="1" source="eOnvPWi8rGCo1wm_rW63-168" target="eOnvPWi8rGCo1wm_rW63-154" edge="1">
                    <mxGeometry relative="1" as="geometry"/>
                </mxCell>
                <mxCell id="eOnvPWi8rGCo1wm_rW63-167" style="edgeStyle=none;html=1;entryX=1;entryY=0.5;entryDx=0;entryDy=0;fontSize=30;" parent="1" source="eOnvPWi8rGCo1wm_rW63-168" target="eOnvPWi8rGCo1wm_rW63-183" edge="1">
                    <mxGeometry relative="1" as="geometry">
                        <Array as="points">
                            <mxPoint x="790" y="720"/>
                            <mxPoint x="790" y="-215"/>
                        </Array>
                    </mxGeometry>
                </mxCell>
                <mxCell id="eOnvPWi8rGCo1wm_rW63-168" value="Header" style="swimlane;fontStyle=1;align=center;verticalAlign=middle;childLayout=stackLayout;horizontal=1;startSize=29;horizontalStack=0;resizeParent=1;resizeParentMax=0;resizeLast=0;collapsible=0;marginBottom=0;html=1;" parent="1" vertex="1">
                    <mxGeometry x="580" y="690" width="140" height="54" as="geometry"/>
                </mxCell>
                <mxCell id="eOnvPWi8rGCo1wm_rW63-169" style="edgeStyle=none;html=1;entryX=1;entryY=0.75;entryDx=0;entryDy=0;fontSize=30;exitX=1;exitY=0.5;exitDx=0;exitDy=0;" parent="1" source="eOnvPWi8rGCo1wm_rW63-170" target="eOnvPWi8rGCo1wm_rW63-183" edge="1">
                    <mxGeometry relative="1" as="geometry">
                        <Array as="points">
                            <mxPoint x="770" y="277"/>
                            <mxPoint x="770" y="-167"/>
                        </Array>
                    </mxGeometry>
                </mxCell>
                <mxCell id="eOnvPWi8rGCo1wm_rW63-170" value="App" style="swimlane;fontStyle=1;align=center;verticalAlign=middle;childLayout=stackLayout;horizontal=1;startSize=29;horizontalStack=0;resizeParent=1;resizeParentMax=0;resizeLast=0;collapsible=0;marginBottom=0;html=1;" parent="1" vertex="1">
                    <mxGeometry x="580" y="250" width="140" height="54" as="geometry"/>
                </mxCell>
                <mxCell id="eOnvPWi8rGCo1wm_rW63-171" value="SideBar" style="swimlane;fontStyle=1;align=center;verticalAlign=middle;childLayout=stackLayout;horizontal=1;startSize=29;horizontalStack=0;resizeParent=1;resizeParentMax=0;resizeLast=0;collapsible=0;marginBottom=0;html=1;" parent="1" vertex="1">
                    <mxGeometry x="-10" y="166" width="140" height="54" as="geometry"/>
                </mxCell>
                <mxCell id="eOnvPWi8rGCo1wm_rW63-173" value="Content.AvaibilityDeepSearch" style="swimlane;fontStyle=1;align=center;verticalAlign=middle;childLayout=stackLayout;horizontal=1;startSize=29;horizontalStack=0;resizeParent=1;resizeParentMax=0;resizeLast=0;collapsible=0;marginBottom=0;html=1;" parent="1" vertex="1">
                    <mxGeometry x="-30" y="260" width="180" height="54" as="geometry"/>
                </mxCell>
                <mxCell id="eOnvPWi8rGCo1wm_rW63-175" value="&lt;div style=&quot;text-align: right&quot;&gt;&lt;span&gt;quick-search&lt;/span&gt;&lt;/div&gt;" style="swimlane;fontStyle=1;align=center;verticalAlign=middle;childLayout=stackLayout;horizontal=1;startSize=29;horizontalStack=0;resizeParent=1;resizeParentMax=0;resizeLast=0;collapsible=0;marginBottom=0;html=1;" parent="1" vertex="1">
                    <mxGeometry x="-10" y="510" width="140" height="54" as="geometry"/>
                </mxCell>
                <mxCell id="eOnvPWi8rGCo1wm_rW63-176" value="Tasklist" style="swimlane;fontStyle=1;align=center;verticalAlign=middle;childLayout=stackLayout;horizontal=1;startSize=29;horizontalStack=0;resizeParent=1;resizeParentMax=0;resizeLast=0;collapsible=0;marginBottom=0;html=1;" parent="1" vertex="1">
                    <mxGeometry x="580" y="327" width="140" height="53" as="geometry"/>
                </mxCell>
                <mxCell id="eOnvPWi8rGCo1wm_rW63-177" style="edgeStyle=none;html=1;entryX=1;entryY=0.5;entryDx=0;entryDy=0;exitX=0.018;exitY=-0.16;exitDx=0;exitDy=0;exitPerimeter=0;" parent="1" target="eOnvPWi8rGCo1wm_rW63-126" edge="1">
                    <mxGeometry relative="1" as="geometry">
                        <mxPoint x="-7.480000000000018" y="451" as="sourcePoint"/>
                    </mxGeometry>
                </mxCell>
                <mxCell id="eOnvPWi8rGCo1wm_rW63-178" style="edgeStyle=none;html=1;entryX=1;entryY=0.5;entryDx=0;entryDy=0;" parent="1" target="eOnvPWi8rGCo1wm_rW63-128" edge="1">
                    <mxGeometry relative="1" as="geometry">
                        <mxPoint x="-10" y="731.5" as="sourcePoint"/>
                    </mxGeometry>
                </mxCell>
                <mxCell id="eOnvPWi8rGCo1wm_rW63-179" style="edgeStyle=none;html=1;entryX=1.007;entryY=0.662;entryDx=0;entryDy=0;entryPerimeter=0;" parent="1" target="eOnvPWi8rGCo1wm_rW63-138" edge="1">
                    <mxGeometry relative="1" as="geometry">
                        <mxPoint x="60" y="894" as="sourcePoint"/>
                        <mxPoint x="-350" y="1010" as="targetPoint"/>
                        <Array as="points">
                            <mxPoint x="60" y="1000"/>
                        </Array>
                    </mxGeometry>
                </mxCell>
                <mxCell id="eOnvPWi8rGCo1wm_rW63-182" style="edgeStyle=none;html=1;exitX=0.5;exitY=0;exitDx=0;exitDy=0;" parent="1" source="eOnvPWi8rGCo1wm_rW63-126" target="eOnvPWi8rGCo1wm_rW63-142" edge="1">
                    <mxGeometry relative="1" as="geometry"/>
                </mxCell>
                <mxCell id="eOnvPWi8rGCo1wm_rW63-183" value="PortalAPI" style="html=1;align=center;verticalAlign=middle;rounded=1;absoluteArcSize=1;arcSize=10;dashed=0;fontSize=20;" parent="1" vertex="1">
                    <mxGeometry x="110" y="-310" width="530" height="190" as="geometry"/>
                </mxCell>
                <mxCell id="eOnvPWi8rGCo1wm_rW63-184" value="BedManager" style="shape=umlFrame;whiteSpace=wrap;html=1;width=120;height=30;boundedLbl=1;verticalAlign=middle;align=left;spacingLeft=5;" parent="1" vertex="1">
                    <mxGeometry x="-886.48" y="-594" width="280" height="1090" as="geometry"/>
                </mxCell>
                <mxCell id="eOnvPWi8rGCo1wm_rW63-185" value="Event" style="swimlane;fontStyle=1;align=center;verticalAlign=middle;childLayout=stackLayout;horizontal=1;startSize=29;horizontalStack=0;resizeParent=1;resizeParentMax=0;resizeLast=0;collapsible=0;marginBottom=0;html=1;" parent="1" vertex="1">
                    <mxGeometry x="-853.48" y="-544" width="220" height="1019" as="geometry"/>
                </mxCell>
                <mxCell id="eOnvPWi8rGCo1wm_rW63-186" value="&lt;u&gt;&lt;b&gt;&lt;br&gt;&lt;br&gt;Props :&amp;nbsp;&lt;/b&gt;&lt;br&gt;&lt;div&gt;&lt;b&gt;&lt;br&gt;&lt;/b&gt;&lt;/div&gt;&lt;/u&gt;id:&amp;nbsp; ; default : null&lt;br&gt;&lt;p class=&quot;MsoNormal&quot;&gt;patient:&amp;nbsp; ; default&amp;nbsp;: null&lt;/p&gt;&lt;p class=&quot;MsoNormal&quot;&gt;startDate:&amp;nbsp; ; default&amp;nbsp;: null&lt;/p&gt;&lt;p class=&quot;MsoNormal&quot;&gt;endDate:&amp;nbsp; ; default&amp;nbsp;: null&lt;/p&gt;&lt;span&gt;confirmedEndDate:&amp;nbsp; ; default&amp;nbsp;: null&lt;/span&gt;&lt;br&gt;&lt;br&gt;&lt;span&gt;optimalEndDate:&amp;nbsp; ; default&amp;nbsp;: null&lt;/span&gt;&lt;br&gt;&lt;br&gt;&lt;span&gt;duration:&amp;nbsp; ; default&amp;nbsp;: null&lt;/span&gt;&lt;br&gt;&lt;br&gt;&lt;span&gt;motive:&amp;nbsp; ; default&amp;nbsp;: null&lt;/span&gt;&lt;br&gt;&lt;br&gt;&lt;span&gt;comment:&amp;nbsp; ; default&amp;nbsp;: null&lt;/span&gt;&lt;br&gt;&lt;br&gt;&lt;span&gt;pole:&amp;nbsp; ; default&amp;nbsp;: null&lt;/span&gt;&lt;br&gt;&lt;br&gt;&lt;span&gt;service:&amp;nbsp; ; default&amp;nbsp;: null&lt;/span&gt;&lt;br&gt;&lt;br&gt;&lt;span&gt;uf:&amp;nbsp; ; default&amp;nbsp;: null&lt;/span&gt;&lt;br&gt;&lt;br&gt;&lt;span&gt;resourceId:&amp;nbsp; ; default&amp;nbsp;: null&lt;/span&gt;&lt;br&gt;&lt;br&gt;&lt;span&gt;confirmed:&amp;nbsp; ; default&amp;nbsp;: null&lt;/span&gt;&lt;br&gt;&lt;br&gt;&lt;span&gt;resource1:&amp;nbsp; ; default&amp;nbsp;: null&lt;/span&gt;&lt;br&gt;&lt;br&gt;&lt;span&gt;typeDoc1:&amp;nbsp; ; default&amp;nbsp;: null&lt;/span&gt;&lt;br&gt;&lt;br&gt;&lt;span&gt;resource2:&amp;nbsp; ; default&amp;nbsp;: null&lt;/span&gt;&lt;br&gt;&lt;br&gt;&lt;span&gt;typeDoc2:&amp;nbsp; ; default&amp;nbsp;: null&lt;/span&gt;&lt;br&gt;&lt;br&gt;&lt;span&gt;resource3:&amp;nbsp; ; default&amp;nbsp;: null&lt;/span&gt;&lt;br&gt;&lt;br&gt;&lt;span&gt;typeDoc3:&amp;nbsp; ; default&amp;nbsp;: null&lt;/span&gt;&lt;br&gt;&lt;br&gt;&lt;span&gt;resource4:&amp;nbsp; ; default&amp;nbsp;: null&lt;/span&gt;&lt;br&gt;&lt;br&gt;&lt;span&gt;typeDoc4:&amp;nbsp; ; default&amp;nbsp;: null&lt;/span&gt;&lt;br&gt;&lt;br&gt;&lt;span&gt;type:&amp;nbsp; ; default&amp;nbsp;: null&lt;/span&gt;&lt;br&gt;&lt;br&gt;&lt;span&gt;autoGenerated:&amp;nbsp; ; default&amp;nbsp;: null&lt;/span&gt;&lt;br&gt;&lt;br&gt;&lt;span&gt;status:&amp;nbsp; ; default&amp;nbsp;: null&lt;/span&gt;&lt;br&gt;&lt;br&gt;&lt;span&gt;color:&amp;nbsp; ; default&amp;nbsp;: null&lt;/span&gt;&lt;br&gt;&lt;br&gt;&lt;span&gt;visible:&amp;nbsp; ; default&amp;nbsp;: null&lt;/span&gt;&lt;br&gt;&lt;br&gt;&lt;span&gt;active:&amp;nbsp; ; default&amp;nbsp;: null&lt;/span&gt;&lt;br&gt;&lt;br&gt;&lt;span&gt;selected:&amp;nbsp; ; default&amp;nbsp;: null&lt;/span&gt;&lt;br&gt;&lt;br&gt;&lt;span&gt;draggable:&amp;nbsp; ; default&amp;nbsp;: null&lt;/span&gt;&lt;br&gt;&lt;br&gt;&lt;span&gt;resizable:&amp;nbsp; ; default&amp;nbsp;: null&lt;/span&gt;&lt;br&gt;&lt;br&gt;&lt;span&gt;cssClasses:&amp;nbsp; ; default&amp;nbsp;: null&lt;/span&gt;&lt;br&gt;&lt;br&gt;&lt;span&gt;dayWidthInPixels:&amp;nbsp; ; default&amp;nbsp;: null&lt;br&gt;&lt;br&gt;&lt;br&gt;&lt;/span&gt;" style="text;html=1;align=center;verticalAlign=middle;resizable=0;points=[];autosize=1;strokeColor=none;fillColor=none;" parent="eOnvPWi8rGCo1wm_rW63-185" vertex="1">
                    <mxGeometry y="29" width="220" height="990" as="geometry"/>
                </mxCell>
                <mxCell id="eOnvPWi8rGCo1wm_rW63-187" value="Components" style="shape=umlFrame;whiteSpace=wrap;html=1;width=120;height=30;boundedLbl=1;verticalAlign=middle;align=left;spacingLeft=5;" parent="1" vertex="1">
                    <mxGeometry x="-920" y="-1147" width="770" height="2187" as="geometry"/>
                </mxCell>
                <mxCell id="eOnvPWi8rGCo1wm_rW63-188" value="&lt;p class=&quot;MsoNormal&quot; style=&quot;text-align: justify&quot;&gt;AppTemplateDefault&lt;/p&gt;" style="swimlane;fontStyle=1;align=center;verticalAlign=middle;childLayout=stackLayout;horizontal=1;startSize=29;horizontalStack=0;resizeParent=1;resizeParentMax=0;resizeLast=0;collapsible=0;marginBottom=0;html=1;" parent="1" vertex="1">
                    <mxGeometry x="-750" y="782" width="140" height="54" as="geometry"/>
                </mxCell>
                <mxCell id="eOnvPWi8rGCo1wm_rW63-189" value="Modal" style="swimlane;fontStyle=1;align=center;verticalAlign=middle;childLayout=stackLayout;horizontal=1;startSize=29;horizontalStack=0;resizeParent=1;resizeParentMax=0;resizeLast=0;collapsible=0;marginBottom=0;html=1;" parent="1" vertex="1">
                    <mxGeometry x="-490" y="836" width="140" height="54" as="geometry"/>
                </mxCell>
                <mxCell id="eOnvPWi8rGCo1wm_rW63-190" value="&lt;p class=&quot;MsoNormal&quot; style=&quot;text-align: justify&quot;&gt;Crossplanning&lt;/p&gt;" style="swimlane;fontStyle=1;align=center;verticalAlign=middle;childLayout=stackLayout;horizontal=1;startSize=29;horizontalStack=0;resizeParent=1;resizeParentMax=0;resizeLast=0;collapsible=0;marginBottom=0;html=1;" parent="1" vertex="1">
                    <mxGeometry x="-558.5" y="253.5" width="380" height="399" as="geometry"/>
                </mxCell>
                <mxCell id="eOnvPWi8rGCo1wm_rW63-191" value="&lt;br&gt;&lt;br&gt;&lt;b&gt;&lt;u&gt;Props &lt;/u&gt;&lt;/b&gt;:&amp;nbsp;&lt;br&gt;&lt;p class=&quot;MsoNormal&quot;&gt;readonly availabilities!: Array&amp;lt;any&amp;gt;; default: () =&amp;gt; {return []}&lt;/p&gt;&lt;p class=&quot;MsoNormal&quot;&gt;readonly occupations!: Array&amp;lt;any&amp;gt;; default: () =&amp;gt; {return []}&lt;/p&gt;&lt;p class=&quot;MsoNormal&quot;&gt;readonly scheduling!: Array&amp;lt;any&amp;gt;; default: () =&amp;gt; {return []}&lt;/p&gt;&lt;p class=&quot;MsoNormal&quot;&gt;readonly resourcesTypes!: Array&amp;lt;any&amp;gt;; default: () =&amp;gt; {return []}&lt;/p&gt;&lt;p class=&quot;MsoNormal&quot;&gt;default: 0 readonly dayHourStart!: number; default: () =&amp;gt; {return []}&lt;/p&gt;&lt;p class=&quot;MsoNormal&quot;&gt;default: 23 readonly dayHourEnd!: number; default: () =&amp;gt; {return []}&lt;/p&gt;&lt;p class=&quot;MsoNormal&quot;&gt;readonly resources!: Array&amp;lt;any&amp;gt;; default: &lt;/p&gt;&lt;span&gt;readonly beginDate!: Date; default:&lt;/span&gt;&lt;br&gt;&lt;br&gt;&lt;span&gt;visibleDays!: number; default: 1&lt;/span&gt;&lt;br&gt;&lt;br&gt;&lt;span&gt;slotDuration!: number;&lt;/span&gt;&lt;br&gt;&lt;br&gt;&lt;span&gt;schedulingMode!: Array&amp;lt;any&amp;gt;; default: () =&amp;gt; {return&amp;nbsp;&lt;/span&gt;&lt;span&gt;false}&lt;br&gt;&lt;/span&gt;&lt;span&gt;&lt;br&gt;&lt;br&gt;&lt;/span&gt;" style="text;html=1;align=center;verticalAlign=middle;resizable=0;points=[];autosize=1;strokeColor=none;fillColor=none;" parent="eOnvPWi8rGCo1wm_rW63-190" vertex="1">
                    <mxGeometry y="29" width="380" height="370" as="geometry"/>
                </mxCell>
                <mxCell id="eOnvPWi8rGCo1wm_rW63-192" value="&lt;p class=&quot;MsoNormal&quot; style=&quot;text-align: justify&quot;&gt;Menu&lt;/p&gt;" style="swimlane;fontStyle=1;align=center;verticalAlign=middle;childLayout=stackLayout;horizontal=1;startSize=29;horizontalStack=0;resizeParent=1;resizeParentMax=0;resizeLast=0;collapsible=0;marginBottom=0;html=1;" parent="1" vertex="1">
                    <mxGeometry x="-460" y="680" width="140" height="109" as="geometry"/>
                </mxCell>
                <mxCell id="eOnvPWi8rGCo1wm_rW63-193" value="&lt;br&gt;&lt;b&gt;&lt;u&gt;Props :&lt;br&gt;&lt;/u&gt;&lt;/b&gt;&lt;br&gt;menu:&amp;nbsp; Array&lt;br&gt;&lt;br&gt;" style="text;html=1;align=center;verticalAlign=middle;resizable=0;points=[];autosize=1;strokeColor=none;fillColor=none;" parent="eOnvPWi8rGCo1wm_rW63-192" vertex="1">
                    <mxGeometry y="29" width="140" height="80" as="geometry"/>
                </mxCell>
                <mxCell id="eOnvPWi8rGCo1wm_rW63-194" value="&lt;p class=&quot;MsoNormal&quot; style=&quot;text-align: justify&quot;&gt;VerticalDailyOrganiser&lt;/p&gt;" style="swimlane;fontStyle=1;align=center;verticalAlign=middle;childLayout=stackLayout;horizontal=1;startSize=29;horizontalStack=0;resizeParent=1;resizeParentMax=0;resizeLast=0;collapsible=0;marginBottom=0;html=1;" parent="1" vertex="1">
                    <mxGeometry x="-517" y="-940" width="310" height="759" as="geometry"/>
                </mxCell>
                <mxCell id="eOnvPWi8rGCo1wm_rW63-195" value="&lt;b&gt;&lt;u&gt;&lt;br&gt;&lt;br&gt;Props&lt;/u&gt;&lt;/b&gt; :&amp;nbsp;&lt;br&gt;&lt;p class=&quot;MsoNormal&quot;&gt;settings: {type: Object, default:&amp;nbsp; () =&amp;gt; {return {&lt;span&gt;&amp;nbsp;&lt;/span&gt;&lt;/p&gt;&lt;p class=&quot;MsoNormal&quot;&gt;&lt;span&gt;slotDuration :&amp;nbsp; 20,&lt;/span&gt;&lt;span&gt;&amp;nbsp;&lt;/span&gt;&lt;/p&gt;&lt;p class=&quot;MsoNormal&quot;&gt;&lt;span&gt;firstSlotHour :&amp;nbsp; '07:00',&lt;/span&gt;&lt;/p&gt;&lt;span&gt;lastSlotHour :&amp;nbsp; '21:00',&lt;/span&gt;&lt;br&gt;&lt;p class=&quot;MsoNormal&quot;&gt;}}},&lt;/p&gt;&lt;p class=&quot;MsoNormal&quot;&gt;&amp;nbsp; &amp;nbsp; &amp;nbsp;&lt;br&gt;availabilities: {type: Array, default: () =&amp;gt; {return [&lt;/p&gt;&lt;p class=&quot;MsoNormal&quot;&gt;&amp;nbsp;{&lt;/p&gt;&lt;p class=&quot;MsoNormal&quot;&gt;&amp;nbsp; &amp;nbsp; &amp;nbsp; &amp;nbsp; &amp;nbsp; &amp;nbsp;&amp;nbsp;&lt;br&gt;start: '08:00',&lt;/p&gt;&lt;p class=&quot;MsoNormal&quot;&gt;&amp;nbsp; &amp;nbsp; &amp;nbsp; &amp;nbsp; &amp;nbsp;&amp;nbsp;&lt;br&gt;end: '12h00',&lt;/p&gt;&lt;p class=&quot;MsoNormal&quot;&gt;type: 'venues',&lt;/p&gt;&lt;p class=&quot;MsoNormal&quot;&gt;&amp;nbsp;},&lt;/p&gt;&lt;p class=&quot;MsoNormal&quot;&gt;&amp;nbsp;{&lt;span&gt;&amp;nbsp; &amp;nbsp; &amp;nbsp; &amp;nbsp; &amp;nbsp;&amp;nbsp;&lt;/span&gt;&lt;/p&gt;&lt;p class=&quot;MsoNormal&quot;&gt;start: '13:00',&lt;/p&gt;&lt;p class=&quot;MsoNormal&quot;&gt;&amp;nbsp; &amp;nbsp; &amp;nbsp; &amp;nbsp; &amp;nbsp;&lt;br&gt;end: '19h00',&lt;/p&gt;&lt;p class=&quot;MsoNormal&quot;&gt;&amp;nbsp; &amp;nbsp; &amp;nbsp; &amp;nbsp; &amp;nbsp;&amp;nbsp;&lt;br&gt;type: 'venues',&lt;/p&gt;&lt;p class=&quot;MsoNormal&quot;&gt;&amp;nbsp; &amp;nbsp; &amp;nbsp; &amp;nbsp; },&lt;/p&gt;&lt;p class=&quot;MsoNormal&quot;&gt;]}},&lt;/p&gt;&lt;p class=&quot;MsoNormal&quot;&gt;&amp;nbsp;events: {type: Array, default: () =&amp;gt; {return []}},&lt;/p&gt;&lt;p class=&quot;MsoNormal&quot;&gt;&amp;nbsp;commands: {type: Array, default: () =&amp;gt; {return []}},&lt;/p&gt;&lt;p class=&quot;MsoNormal&quot;&gt;&amp;nbsp;mode: {type: String, default:'day'},&lt;/p&gt;&lt;span&gt;date:&amp;nbsp;&lt;/span&gt;&lt;span&gt;{type: Date, default:() =&amp;gt; {return new Date()}},&lt;/span&gt;&lt;span&gt;&lt;br&gt;&lt;/span&gt;&lt;p class=&quot;MsoNormal&quot;&gt;&lt;br&gt;&lt;/p&gt;&lt;p class=&quot;MsoNormal&quot;&gt;&lt;br&gt;&lt;/p&gt;" style="text;html=1;align=center;verticalAlign=middle;resizable=0;points=[];autosize=1;strokeColor=none;fillColor=none;" parent="eOnvPWi8rGCo1wm_rW63-194" vertex="1">
                    <mxGeometry y="29" width="310" height="730" as="geometry"/>
                </mxCell>
                <mxCell id="eOnvPWi8rGCo1wm_rW63-196" style="edgeStyle=none;html=1;fontSize=30;entryX=0.781;entryY=1.011;entryDx=0;entryDy=0;entryPerimeter=0;fillColor=#e51400;strokeColor=#B20000;" parent="1" source="eOnvPWi8rGCo1wm_rW63-197" target="eOnvPWi8rGCo1wm_rW63-247" edge="1">
                    <mxGeometry relative="1" as="geometry">
                        <mxPoint x="520" y="-120" as="targetPoint"/>
                        <Array as="points">
                            <mxPoint x="520" y="547"/>
                        </Array>
                    </mxGeometry>
                </mxCell>
                <mxCell id="eOnvPWi8rGCo1wm_rW63-197" value="Header" style="swimlane;fontStyle=1;align=center;verticalAlign=middle;childLayout=stackLayout;horizontal=1;startSize=29;horizontalStack=0;resizeParent=1;resizeParentMax=0;resizeLast=0;collapsible=0;marginBottom=0;html=1;" parent="1" vertex="1">
                    <mxGeometry x="312" y="520" width="140" height="54" as="geometry"/>
                </mxCell>
                <mxCell id="eOnvPWi8rGCo1wm_rW63-198" style="edgeStyle=none;html=1;entryX=1;entryY=0.5;entryDx=0;entryDy=0;" parent="1" source="eOnvPWi8rGCo1wm_rW63-199" target="eOnvPWi8rGCo1wm_rW63-189" edge="1">
                    <mxGeometry relative="1" as="geometry"/>
                </mxCell>
                <mxCell id="eOnvPWi8rGCo1wm_rW63-199" value="SideBar" style="swimlane;fontStyle=1;align=center;verticalAlign=middle;childLayout=stackLayout;horizontal=1;startSize=29;horizontalStack=0;resizeParent=1;resizeParentMax=0;resizeLast=0;collapsible=0;marginBottom=0;html=1;" parent="1" vertex="1">
                    <mxGeometry x="-10" y="840" width="140" height="54" as="geometry"/>
                </mxCell>
                <mxCell id="eOnvPWi8rGCo1wm_rW63-200" value="&lt;p class=&quot;MsoNormal&quot; style=&quot;text-align: justify&quot;&gt;Notifications&lt;/p&gt;" style="swimlane;fontStyle=1;align=center;verticalAlign=middle;childLayout=stackLayout;horizontal=1;startSize=29;horizontalStack=0;resizeParent=1;resizeParentMax=0;resizeLast=0;collapsible=0;marginBottom=0;html=1;" parent="1" vertex="1">
                    <mxGeometry x="-780" y="-1084" width="140" height="54" as="geometry"/>
                </mxCell>
                <mxCell id="eOnvPWi8rGCo1wm_rW63-201" value="&lt;p class=&quot;MsoNormal&quot; style=&quot;text-align: justify&quot;&gt;TreeView&lt;/p&gt;" style="swimlane;fontStyle=1;align=center;verticalAlign=middle;childLayout=stackLayout;horizontal=1;startSize=29;horizontalStack=0;resizeParent=1;resizeParentMax=0;resizeLast=0;collapsible=0;marginBottom=0;html=1;" parent="1" vertex="1">
                    <mxGeometry x="-487" y="920" width="140" height="109" as="geometry"/>
                </mxCell>
                <mxCell id="eOnvPWi8rGCo1wm_rW63-202" value="&lt;br&gt;&lt;b&gt;&lt;u&gt;Props &lt;/u&gt;&lt;/b&gt;:&lt;br&gt;&lt;br&gt;Tree : [Array, Object]&lt;br&gt;&lt;br&gt;" style="text;html=1;align=center;verticalAlign=middle;resizable=0;points=[];autosize=1;strokeColor=none;fillColor=none;" parent="eOnvPWi8rGCo1wm_rW63-201" vertex="1">
                    <mxGeometry y="29" width="140" height="80" as="geometry"/>
                </mxCell>
                <mxCell id="eOnvPWi8rGCo1wm_rW63-203" style="edgeStyle=none;html=1;exitX=0;exitY=0.5;exitDx=0;exitDy=0;entryX=1;entryY=0.5;entryDx=0;entryDy=0;" parent="1" source="eOnvPWi8rGCo1wm_rW63-204" target="eOnvPWi8rGCo1wm_rW63-200" edge="1">
                    <mxGeometry relative="1" as="geometry"/>
                </mxCell>
                <mxCell id="eOnvPWi8rGCo1wm_rW63-204" value="&lt;p class=&quot;MsoNormal&quot; style=&quot;text-align: justify&quot;&gt;Login&lt;/p&gt;" style="swimlane;fontStyle=1;align=center;verticalAlign=middle;childLayout=stackLayout;horizontal=1;startSize=29;horizontalStack=0;resizeParent=1;resizeParentMax=0;resizeLast=0;collapsible=0;marginBottom=0;html=1;" parent="1" vertex="1">
                    <mxGeometry x="-347" y="-1084" width="140" height="54" as="geometry"/>
                </mxCell>
                <mxCell id="eOnvPWi8rGCo1wm_rW63-205" value="&lt;p class=&quot;MsoNormal&quot; style=&quot;text-align: justify&quot;&gt;DropDownList&lt;/p&gt;" style="swimlane;fontStyle=1;align=center;verticalAlign=middle;childLayout=stackLayout;horizontal=1;startSize=29;horizontalStack=0;resizeParent=1;resizeParentMax=0;resizeLast=0;collapsible=0;marginBottom=0;html=1;" parent="1" vertex="1">
                    <mxGeometry x="-517" y="-109" width="303" height="229" as="geometry"/>
                </mxCell>
                <mxCell id="eOnvPWi8rGCo1wm_rW63-206" value="&lt;br&gt;&lt;b&gt;&lt;u&gt;Props :&amp;nbsp;&lt;br&gt;&lt;/u&gt;&lt;/b&gt;&lt;p class=&quot;MsoNormal&quot;&gt;value&amp;nbsp;:&amp;nbsp; ; default:&lt;br&gt;() =&amp;gt;&amp;nbsp; []&lt;/p&gt;&lt;p class=&quot;MsoNormal&quot;&gt;options&amp;nbsp;:&amp;nbsp; ; default:&lt;br&gt;() =&amp;gt;&amp;nbsp; [{ id: 0, label: 'No options&lt;br&gt;provided' }, { id: 1, label: 'example list to be happy' }]&lt;/p&gt;&lt;span&gt;valueKey&amp;nbsp;:&amp;nbsp; ;&amp;nbsp;&amp;nbsp; &amp;nbsp;default: 'id'&amp;nbsp;&amp;nbsp;&lt;/span&gt;&lt;br&gt;&lt;span&gt;&lt;br&gt;labelKey&amp;nbsp;:&amp;nbsp; ;&amp;nbsp; &amp;nbsp;default: 'label'&amp;nbsp;&amp;nbsp;&lt;br&gt;&lt;br&gt;&lt;/span&gt;" style="text;html=1;align=center;verticalAlign=middle;resizable=0;points=[];autosize=1;strokeColor=none;fillColor=none;" parent="eOnvPWi8rGCo1wm_rW63-205" vertex="1">
                    <mxGeometry y="29" width="303" height="200" as="geometry"/>
                </mxCell>
                <mxCell id="eOnvPWi8rGCo1wm_rW63-207" value="" style="endArrow=open;startArrow=none;endFill=0;startFill=0;endSize=8;html=1;verticalAlign=bottom;labelBackgroundColor=none;strokeWidth=1;exitX=0;exitY=0.5;exitDx=0;exitDy=0;entryX=1.011;entryY=0.98;entryDx=0;entryDy=0;entryPerimeter=0;" parent="1" source="eOnvPWi8rGCo1wm_rW63-190" target="eOnvPWi8rGCo1wm_rW63-186" edge="1">
                    <mxGeometry width="160" relative="1" as="geometry">
                        <mxPoint x="-602" y="456.82500000000005" as="sourcePoint"/>
                        <mxPoint x="-719.3599999999999" y="457.17499999999995" as="targetPoint"/>
                    </mxGeometry>
                </mxCell>
                <mxCell id="eOnvPWi8rGCo1wm_rW63-208" value="&lt;p class=&quot;MsoNormal&quot; style=&quot;text-align: justify&quot;&gt;app.bedmanager&lt;/p&gt;" style="shape=umlFrame;whiteSpace=wrap;html=1;width=120;height=30;boundedLbl=1;verticalAlign=middle;align=left;spacingLeft=5;" parent="1" vertex="1">
                    <mxGeometry x="-60" y="120" width="240" height="480" as="geometry"/>
                </mxCell>
                <mxCell id="eOnvPWi8rGCo1wm_rW63-209" value="&lt;p class=&quot;MsoNormal&quot; style=&quot;text-align: justify&quot;&gt;app.worklist&lt;/p&gt;" style="shape=umlFrame;whiteSpace=wrap;html=1;width=120;height=30;boundedLbl=1;verticalAlign=middle;align=left;spacingLeft=5;" parent="1" vertex="1">
                    <mxGeometry x="550" y="120" width="200" height="290" as="geometry"/>
                </mxCell>
                <mxCell id="eOnvPWi8rGCo1wm_rW63-210" value="&lt;p class=&quot;MsoNormal&quot; style=&quot;text-align: justify&quot;&gt;app.training&lt;/p&gt;" style="shape=umlFrame;whiteSpace=wrap;html=1;width=120;height=30;boundedLbl=1;verticalAlign=middle;align=left;spacingLeft=5;" parent="1" vertex="1">
                    <mxGeometry x="280" y="640" width="190" height="130" as="geometry"/>
                </mxCell>
                <mxCell id="eOnvPWi8rGCo1wm_rW63-211" value="&lt;p class=&quot;MsoNormal&quot; style=&quot;text-align: justify&quot;&gt;app.paramvenue&lt;/p&gt;" style="shape=umlFrame;whiteSpace=wrap;html=1;width=120;height=30;boundedLbl=1;verticalAlign=middle;align=left;spacingLeft=5;" parent="1" vertex="1">
                    <mxGeometry x="288" y="394" width="192" height="206" as="geometry"/>
                </mxCell>
                <mxCell id="eOnvPWi8rGCo1wm_rW63-212" value="&lt;p class=&quot;MsoNormal&quot; style=&quot;text-align: justify&quot;&gt;app.editique&lt;/p&gt;" style="shape=umlFrame;whiteSpace=wrap;html=1;width=120;height=30;boundedLbl=1;verticalAlign=middle;align=left;spacingLeft=5;" parent="1" vertex="1">
                    <mxGeometry x="280" y="120" width="200" height="220" as="geometry"/>
                </mxCell>
                <mxCell id="eOnvPWi8rGCo1wm_rW63-213" value="&lt;p class=&quot;MsoNormal&quot; style=&quot;text-align: justify&quot;&gt;app.ged&lt;/p&gt;" style="shape=umlFrame;whiteSpace=wrap;html=1;width=120;height=30;boundedLbl=1;verticalAlign=middle;align=left;spacingLeft=5;" parent="1" vertex="1">
                    <mxGeometry x="-40" y="640" width="200" height="300" as="geometry"/>
                </mxCell>
                <mxCell id="eOnvPWi8rGCo1wm_rW63-214" value="&lt;p class=&quot;MsoNormal&quot; style=&quot;text-align: justify&quot;&gt;app.protocolisation&lt;/p&gt;" style="shape=umlFrame;whiteSpace=wrap;html=1;width=120;height=30;boundedLbl=1;verticalAlign=middle;align=left;spacingLeft=5;" parent="1" vertex="1">
                    <mxGeometry x="550" y="640" width="200" height="260" as="geometry"/>
                </mxCell>
                <mxCell id="eOnvPWi8rGCo1wm_rW63-216" value="Content" style="swimlane;fontStyle=1;align=center;verticalAlign=middle;childLayout=stackLayout;horizontal=1;startSize=29;horizontalStack=0;resizeParent=1;resizeParentMax=0;resizeLast=0;collapsible=0;marginBottom=0;html=1;" parent="1" vertex="1">
                    <mxGeometry x="310" y="690" width="140" height="54" as="geometry"/>
                </mxCell>
                <mxCell id="eOnvPWi8rGCo1wm_rW63-217" style="edgeStyle=none;html=1;entryX=1.005;entryY=0.325;entryDx=0;entryDy=0;entryPerimeter=0;fontSize=30;fillColor=#e51400;strokeColor=#B20000;" parent="1" source="eOnvPWi8rGCo1wm_rW63-218" target="eOnvPWi8rGCo1wm_rW63-247" edge="1">
                    <mxGeometry relative="1" as="geometry">
                        <Array as="points">
                            <mxPoint x="810" y="830"/>
                            <mxPoint x="810" y="-248"/>
                        </Array>
                    </mxGeometry>
                </mxCell>
                <mxCell id="eOnvPWi8rGCo1wm_rW63-218" value="Content" style="swimlane;fontStyle=1;align=center;verticalAlign=middle;childLayout=stackLayout;horizontal=1;startSize=29;horizontalStack=0;resizeParent=1;resizeParentMax=0;resizeLast=0;collapsible=0;marginBottom=0;html=1;" parent="1" vertex="1">
                    <mxGeometry x="580" y="800" width="140" height="54" as="geometry"/>
                </mxCell>
                <mxCell id="eOnvPWi8rGCo1wm_rW63-219" style="edgeStyle=none;html=1;entryX=0.75;entryY=1;entryDx=0;entryDy=0;fontSize=30;fillColor=#e51400;strokeColor=#B20000;" parent="1" source="eOnvPWi8rGCo1wm_rW63-220" target="eOnvPWi8rGCo1wm_rW63-247" edge="1">
                    <mxGeometry relative="1" as="geometry">
                        <Array as="points">
                            <mxPoint x="500" y="470"/>
                        </Array>
                    </mxGeometry>
                </mxCell>
                <mxCell id="eOnvPWi8rGCo1wm_rW63-220" value="Content" style="swimlane;fontStyle=1;align=center;verticalAlign=middle;childLayout=stackLayout;horizontal=1;startSize=29;horizontalStack=0;resizeParent=1;resizeParentMax=0;resizeLast=0;collapsible=0;marginBottom=0;html=1;" parent="1" vertex="1">
                    <mxGeometry x="312" y="442" width="140" height="54" as="geometry"/>
                </mxCell>
                <mxCell id="eOnvPWi8rGCo1wm_rW63-221" value="Content" style="swimlane;fontStyle=1;align=center;verticalAlign=middle;childLayout=stackLayout;horizontal=1;startSize=29;horizontalStack=0;resizeParent=1;resizeParentMax=0;resizeLast=0;collapsible=0;marginBottom=0;html=1;" parent="1" vertex="1">
                    <mxGeometry x="-10" y="770" width="140" height="54" as="geometry"/>
                </mxCell>
                <mxCell id="eOnvPWi8rGCo1wm_rW63-222" style="edgeStyle=none;html=1;entryX=0.722;entryY=1.023;entryDx=0;entryDy=0;fontSize=30;entryPerimeter=0;fillColor=#e51400;strokeColor=#B20000;" parent="1" source="eOnvPWi8rGCo1wm_rW63-223" target="eOnvPWi8rGCo1wm_rW63-247" edge="1">
                    <mxGeometry relative="1" as="geometry">
                        <Array as="points">
                            <mxPoint x="490" y="277"/>
                        </Array>
                    </mxGeometry>
                </mxCell>
                <mxCell id="eOnvPWi8rGCo1wm_rW63-223" value="Content" style="swimlane;fontStyle=1;align=center;verticalAlign=middle;childLayout=stackLayout;horizontal=1;startSize=29;horizontalStack=0;resizeParent=1;resizeParentMax=0;resizeLast=0;collapsible=0;marginBottom=0;html=1;" parent="1" vertex="1">
                    <mxGeometry x="313" y="250" width="140" height="54" as="geometry"/>
                </mxCell>
                <mxCell id="eOnvPWi8rGCo1wm_rW63-224" style="edgeStyle=none;html=1;entryX=0.167;entryY=1.007;entryDx=0;entryDy=0;fontSize=30;entryPerimeter=0;fillColor=#e51400;strokeColor=#B20000;" parent="1" source="eOnvPWi8rGCo1wm_rW63-225" target="eOnvPWi8rGCo1wm_rW63-247" edge="1">
                    <mxGeometry relative="1" as="geometry">
                        <Array as="points">
                            <mxPoint x="200" y="453"/>
                        </Array>
                    </mxGeometry>
                </mxCell>
                <mxCell id="eOnvPWi8rGCo1wm_rW63-225" value="Content.Occupation" style="swimlane;fontStyle=1;align=center;verticalAlign=middle;childLayout=stackLayout;horizontal=1;startSize=29;horizontalStack=0;resizeParent=1;resizeParentMax=0;resizeLast=0;collapsible=0;marginBottom=0;html=1;" parent="1" vertex="1">
                    <mxGeometry x="-10" y="426" width="140" height="54" as="geometry"/>
                </mxCell>
                <mxCell id="eOnvPWi8rGCo1wm_rW63-226" value="Header" style="swimlane;fontStyle=1;align=center;verticalAlign=middle;childLayout=stackLayout;horizontal=1;startSize=29;horizontalStack=0;resizeParent=1;resizeParentMax=0;resizeLast=0;collapsible=0;marginBottom=0;html=1;" parent="1" vertex="1">
                    <mxGeometry x="313" y="170" width="140" height="54" as="geometry"/>
                </mxCell>
                <mxCell id="eOnvPWi8rGCo1wm_rW63-227" value="Header" style="swimlane;fontStyle=1;align=center;verticalAlign=middle;childLayout=stackLayout;horizontal=1;startSize=29;horizontalStack=0;resizeParent=1;resizeParentMax=0;resizeLast=0;collapsible=0;marginBottom=0;html=1;" parent="1" vertex="1">
                    <mxGeometry x="-10" y="340" width="140" height="54" as="geometry"/>
                </mxCell>
                <mxCell id="eOnvPWi8rGCo1wm_rW63-228" value="Header" style="swimlane;fontStyle=1;align=center;verticalAlign=middle;childLayout=stackLayout;horizontal=1;startSize=29;horizontalStack=0;resizeParent=1;resizeParentMax=0;resizeLast=0;collapsible=0;marginBottom=0;html=1;" parent="1" vertex="1">
                    <mxGeometry x="-10" y="690" width="140" height="54" as="geometry"/>
                </mxCell>
                <mxCell id="eOnvPWi8rGCo1wm_rW63-229" value="Header" style="swimlane;fontStyle=1;align=center;verticalAlign=middle;childLayout=stackLayout;horizontal=1;startSize=29;horizontalStack=0;resizeParent=1;resizeParentMax=0;resizeLast=0;collapsible=0;marginBottom=0;html=1;" parent="1" vertex="1">
                    <mxGeometry x="580" y="170" width="140" height="54" as="geometry"/>
                </mxCell>
                <mxCell id="eOnvPWi8rGCo1wm_rW63-230" style="edgeStyle=none;html=1;entryX=0.5;entryY=0;entryDx=0;entryDy=0;" parent="1" source="eOnvPWi8rGCo1wm_rW63-232" target="eOnvPWi8rGCo1wm_rW63-218" edge="1">
                    <mxGeometry relative="1" as="geometry"/>
                </mxCell>
                <mxCell id="eOnvPWi8rGCo1wm_rW63-231" style="edgeStyle=none;html=1;entryX=1;entryY=0.5;entryDx=0;entryDy=0;fontSize=30;fillColor=#e51400;strokeColor=#B20000;" parent="1" source="eOnvPWi8rGCo1wm_rW63-232" target="eOnvPWi8rGCo1wm_rW63-247" edge="1">
                    <mxGeometry relative="1" as="geometry">
                        <Array as="points">
                            <mxPoint x="790" y="720"/>
                            <mxPoint x="790" y="-215"/>
                        </Array>
                    </mxGeometry>
                </mxCell>
                <mxCell id="eOnvPWi8rGCo1wm_rW63-232" value="Header" style="swimlane;fontStyle=1;align=center;verticalAlign=middle;childLayout=stackLayout;horizontal=1;startSize=29;horizontalStack=0;resizeParent=1;resizeParentMax=0;resizeLast=0;collapsible=0;marginBottom=0;html=1;" parent="1" vertex="1">
                    <mxGeometry x="580" y="690" width="140" height="54" as="geometry"/>
                </mxCell>
                <mxCell id="eOnvPWi8rGCo1wm_rW63-233" style="edgeStyle=none;html=1;entryX=1;entryY=0.75;entryDx=0;entryDy=0;fontSize=30;exitX=1;exitY=0.5;exitDx=0;exitDy=0;fillColor=#e51400;strokeColor=#B20000;" parent="1" source="eOnvPWi8rGCo1wm_rW63-234" target="eOnvPWi8rGCo1wm_rW63-247" edge="1">
                    <mxGeometry relative="1" as="geometry">
                        <Array as="points">
                            <mxPoint x="770" y="277"/>
                            <mxPoint x="770" y="-167"/>
                        </Array>
                    </mxGeometry>
                </mxCell>
                <mxCell id="eOnvPWi8rGCo1wm_rW63-234" value="App" style="swimlane;fontStyle=1;align=center;verticalAlign=middle;childLayout=stackLayout;horizontal=1;startSize=29;horizontalStack=0;resizeParent=1;resizeParentMax=0;resizeLast=0;collapsible=0;marginBottom=0;html=1;" parent="1" vertex="1">
                    <mxGeometry x="580" y="250" width="140" height="54" as="geometry"/>
                </mxCell>
                <mxCell id="eOnvPWi8rGCo1wm_rW63-235" value="SideBar" style="swimlane;fontStyle=1;align=center;verticalAlign=middle;childLayout=stackLayout;horizontal=1;startSize=29;horizontalStack=0;resizeParent=1;resizeParentMax=0;resizeLast=0;collapsible=0;marginBottom=0;html=1;" parent="1" vertex="1">
                    <mxGeometry x="-10" y="166" width="140" height="54" as="geometry"/>
                </mxCell>
                <mxCell id="eOnvPWi8rGCo1wm_rW63-236" style="edgeStyle=none;html=1;entryX=0.189;entryY=1.01;entryDx=0;entryDy=0;fontSize=30;fillColor=#e51400;strokeColor=#B20000;entryPerimeter=0;" parent="1" source="eOnvPWi8rGCo1wm_rW63-237" target="eOnvPWi8rGCo1wm_rW63-247" edge="1">
                    <mxGeometry relative="1" as="geometry">
                        <Array as="points">
                            <mxPoint x="215" y="287"/>
                        </Array>
                    </mxGeometry>
                </mxCell>
                <mxCell id="eOnvPWi8rGCo1wm_rW63-237" value="Content.AvaibilityDeepSearch" style="swimlane;fontStyle=1;align=center;verticalAlign=middle;childLayout=stackLayout;horizontal=1;startSize=29;horizontalStack=0;resizeParent=1;resizeParentMax=0;resizeLast=0;collapsible=0;marginBottom=0;html=1;" parent="1" vertex="1">
                    <mxGeometry x="-30" y="260" width="180" height="54" as="geometry"/>
                </mxCell>
                <mxCell id="eOnvPWi8rGCo1wm_rW63-238" style="edgeStyle=none;html=1;entryX=0.146;entryY=0.996;entryDx=0;entryDy=0;fontSize=30;entryPerimeter=0;fillColor=#e51400;strokeColor=#B20000;" parent="1" source="eOnvPWi8rGCo1wm_rW63-239" target="eOnvPWi8rGCo1wm_rW63-247" edge="1">
                    <mxGeometry relative="1" as="geometry">
                        <Array as="points">
                            <mxPoint x="190" y="537"/>
                        </Array>
                    </mxGeometry>
                </mxCell>
                <mxCell id="eOnvPWi8rGCo1wm_rW63-239" value="&lt;div style=&quot;text-align: right&quot;&gt;&lt;span&gt;quick-search&lt;/span&gt;&lt;/div&gt;" style="swimlane;fontStyle=1;align=center;verticalAlign=middle;childLayout=stackLayout;horizontal=1;startSize=29;horizontalStack=0;resizeParent=1;resizeParentMax=0;resizeLast=0;collapsible=0;marginBottom=0;html=1;" parent="1" vertex="1">
                    <mxGeometry x="-10" y="510" width="140" height="54" as="geometry"/>
                </mxCell>
                <mxCell id="eOnvPWi8rGCo1wm_rW63-240" value="Tasklist" style="swimlane;fontStyle=1;align=center;verticalAlign=middle;childLayout=stackLayout;horizontal=1;startSize=29;horizontalStack=0;resizeParent=1;resizeParentMax=0;resizeLast=0;collapsible=0;marginBottom=0;html=1;" parent="1" vertex="1">
                    <mxGeometry x="580" y="327" width="140" height="53" as="geometry"/>
                </mxCell>
                <mxCell id="eOnvPWi8rGCo1wm_rW63-241" style="edgeStyle=none;html=1;entryX=1;entryY=0.5;entryDx=0;entryDy=0;exitX=0.018;exitY=-0.16;exitDx=0;exitDy=0;exitPerimeter=0;" parent="1" target="eOnvPWi8rGCo1wm_rW63-190" edge="1">
                    <mxGeometry relative="1" as="geometry">
                        <mxPoint x="-7.480000000000018" y="451" as="sourcePoint"/>
                    </mxGeometry>
                </mxCell>
                <mxCell id="eOnvPWi8rGCo1wm_rW63-242" style="edgeStyle=none;html=1;entryX=1;entryY=0.5;entryDx=0;entryDy=0;" parent="1" target="eOnvPWi8rGCo1wm_rW63-192" edge="1">
                    <mxGeometry relative="1" as="geometry">
                        <mxPoint x="-10" y="731.5" as="sourcePoint"/>
                    </mxGeometry>
                </mxCell>
                <mxCell id="eOnvPWi8rGCo1wm_rW63-243" style="edgeStyle=none;html=1;entryX=1.007;entryY=0.662;entryDx=0;entryDy=0;entryPerimeter=0;" parent="1" target="eOnvPWi8rGCo1wm_rW63-202" edge="1">
                    <mxGeometry relative="1" as="geometry">
                        <mxPoint x="60" y="894" as="sourcePoint"/>
                        <mxPoint x="-350" y="1010" as="targetPoint"/>
                        <Array as="points">
                            <mxPoint x="60" y="1000"/>
                        </Array>
                    </mxGeometry>
                </mxCell>
                <mxCell id="eOnvPWi8rGCo1wm_rW63-246" style="edgeStyle=none;html=1;exitX=0.5;exitY=0;exitDx=0;exitDy=0;" parent="1" source="eOnvPWi8rGCo1wm_rW63-190" target="eOnvPWi8rGCo1wm_rW63-206" edge="1">
                    <mxGeometry relative="1" as="geometry"/>
                </mxCell>
                <mxCell id="eOnvPWi8rGCo1wm_rW63-247" value="PortalAPI" style="html=1;align=center;verticalAlign=middle;rounded=1;absoluteArcSize=1;arcSize=10;dashed=0;fontSize=20;" parent="1" vertex="1">
                    <mxGeometry x="110" y="-310" width="530" height="190" as="geometry"/>
                </mxCell>
                <mxCell id="121" style="edgeStyle=none;html=1;fontSize=30;fillColor=#e51400;strokeColor=#B20000;entryX=0.222;entryY=1.007;entryDx=0;entryDy=0;entryPerimeter=0;" parent="1" target="eOnvPWi8rGCo1wm_rW63-247" edge="1">
                    <mxGeometry relative="1" as="geometry">
                        <Array as="points">
                            <mxPoint x="230" y="718"/>
                        </Array>
                        <mxPoint x="130" y="717.76" as="sourcePoint"/>
                        <mxPoint x="230" y="-110" as="targetPoint"/>
                    </mxGeometry>
                </mxCell>
                <mxCell id="122" style="edgeStyle=none;html=1;fontSize=30;fillColor=#e51400;strokeColor=#B20000;entryX=0.25;entryY=1;entryDx=0;entryDy=0;" parent="1" target="eOnvPWi8rGCo1wm_rW63-247" edge="1">
                    <mxGeometry relative="1" as="geometry">
                        <Array as="points">
                            <mxPoint x="240" y="800"/>
                        </Array>
                        <mxPoint x="130" y="799.7600000000002" as="sourcePoint"/>
                        <mxPoint x="227.6600000000003" y="-36.67000000000007" as="targetPoint"/>
                    </mxGeometry>
                </mxCell>
                <mxCell id="123" style="edgeStyle=none;html=1;fontSize=30;fillColor=#e51400;strokeColor=#B20000;entryX=0.282;entryY=0.999;entryDx=0;entryDy=0;entryPerimeter=0;" parent="1" target="eOnvPWi8rGCo1wm_rW63-247" edge="1">
                    <mxGeometry relative="1" as="geometry">
                        <Array as="points">
                            <mxPoint x="260" y="877"/>
                        </Array>
                        <mxPoint x="130" y="876.4300000000002" as="sourcePoint"/>
                        <mxPoint x="227.6600000000003" y="39.999999999999915" as="targetPoint"/>
                    </mxGeometry>
                </mxCell>
            </root>
        </mxGraphModel>
    </diagram>
</mxfile>